<svg id="svg" version="1.1" xmlns="http://www.w3.org/2000/svg" xmlns:xlink="http://www.w3.org/1999/xlink" width="400" height="400" viewBox="0, 0, 400,400"><g id="svgg"><path id="path0" d="M154.200 96.000 C 154.062 96.223,152.204 96.400,150.000 96.400 C 147.796 96.400,145.938 96.577,145.800 96.800 C 145.664 97.020,144.213 97.200,142.576 97.200 C 140.859 97.200,139.600 97.369,139.600 97.600 C 139.600 97.822,138.541 98.000,137.224 98.000 C 135.917 98.000,134.736 98.180,134.600 98.400 C 134.464 98.620,133.373 98.800,132.176 98.800 C 130.979 98.800,130.000 98.980,130.000 99.200 C 130.000 99.420,129.010 99.600,127.800 99.600 C 126.590 99.600,125.600 99.780,125.600 100.000 C 125.600 100.220,124.700 100.400,123.600 100.400 C 122.500 100.400,121.600 100.580,121.600 100.800 C 121.600 101.020,120.700 101.200,119.600 101.200 C 118.500 101.200,117.600 101.380,117.600 101.600 C 117.600 101.820,116.880 102.000,116.000 102.000 C 115.120 102.000,114.400 102.180,114.400 102.400 C 114.400 102.620,113.691 102.800,112.824 102.800 C 111.957 102.800,111.136 102.980,111.000 103.200 C 110.864 103.420,110.043 103.600,109.176 103.600 C 108.309 103.600,107.600 103.780,107.600 104.000 C 107.600 104.220,107.071 104.400,106.424 104.400 C 105.777 104.400,105.136 104.580,105.000 104.800 C 104.864 105.020,104.133 105.200,103.376 105.200 C 102.619 105.200,102.000 105.380,102.000 105.600 C 102.000 105.820,101.280 106.000,100.400 106.000 C 99.520 106.000,98.800 106.180,98.800 106.400 C 98.800 106.620,98.260 106.800,97.600 106.800 C 96.940 106.800,96.400 106.980,96.400 107.200 C 96.400 107.420,95.770 107.600,95.000 107.600 C 94.230 107.600,93.600 107.780,93.600 108.000 C 93.600 108.220,93.171 108.400,92.646 108.400 C 91.622 108.400,87.847 109.440,86.705 110.037 C 86.323 110.237,85.659 110.400,85.229 110.400 C 84.799 110.400,84.336 110.580,84.200 110.800 C 84.064 111.020,83.601 111.200,83.171 111.200 C 82.741 111.200,82.077 111.359,81.695 111.553 C 81.313 111.748,80.460 112.129,79.800 112.400 C 79.140 112.671,78.287 113.052,77.905 113.247 C 77.523 113.441,76.848 113.600,76.405 113.600 C 75.962 113.600,75.600 113.780,75.600 114.000 C 75.600 114.220,75.251 114.400,74.824 114.400 C 74.397 114.400,73.936 114.580,73.800 114.800 C 73.664 115.020,73.113 115.200,72.576 115.200 C 72.039 115.200,71.600 115.380,71.600 115.600 C 71.600 115.820,71.240 116.000,70.800 116.000 C 70.360 116.000,70.000 116.180,70.000 116.400 C 70.000 116.620,69.651 116.800,69.224 116.800 C 68.797 116.800,68.336 116.980,68.200 117.200 C 68.064 117.420,67.513 117.600,66.976 117.600 C 66.439 117.600,66.000 117.780,66.000 118.000 C 66.000 118.220,65.640 118.400,65.200 118.400 C 64.760 118.400,64.400 118.580,64.400 118.800 C 64.400 119.020,64.040 119.200,63.600 119.200 C 63.160 119.200,62.800 119.380,62.800 119.600 C 62.800 119.820,62.440 120.000,62.000 120.000 C 61.560 120.000,61.200 120.180,61.200 120.400 C 61.200 120.620,60.840 120.800,60.400 120.800 C 59.960 120.800,59.600 120.980,59.600 121.200 C 59.600 121.420,59.330 121.600,59.000 121.600 C 58.670 121.600,58.400 121.780,58.400 122.000 C 58.400 122.220,58.040 122.400,57.600 122.400 C 57.160 122.400,56.800 122.580,56.800 122.800 C 56.800 123.020,56.480 123.200,56.088 123.200 C 55.697 123.200,55.117 123.560,54.800 124.000 C 54.483 124.440,53.984 124.800,53.692 124.800 C 53.015 124.800,50.808 125.935,50.091 126.652 C 49.790 126.953,49.384 127.200,49.190 127.200 C 48.995 127.200,48.386 127.650,47.836 128.200 C 47.286 128.750,46.666 129.200,46.459 129.200 C 45.731 129.200,39.349 135.974,38.432 137.719 C 38.120 138.314,37.715 138.800,37.532 138.800 C 37.350 138.800,37.200 139.239,37.200 139.776 C 37.200 140.313,37.020 140.864,36.800 141.000 C 35.757 141.644,36.595 150.385,37.700 150.397 C 37.865 150.399,38.000 150.635,38.000 150.922 C 38.000 152.056,49.387 163.600,50.506 163.600 C 50.711 163.600,51.383 164.140,52.000 164.800 C 52.617 165.460,53.292 166.000,53.501 166.000 C 53.710 166.000,54.446 166.540,55.137 167.200 C 55.828 167.860,56.625 168.400,56.908 168.400 C 57.191 168.400,57.683 168.760,58.000 169.200 C 58.317 169.640,58.779 170.000,59.026 170.000 C 59.274 170.000,59.802 170.360,60.200 170.800 C 60.598 171.240,61.151 171.600,61.429 171.600 C 61.706 171.600,61.993 171.738,62.067 171.906 C 62.260 172.350,67.169 175.200,67.740 175.200 C 68.006 175.200,68.483 175.560,68.800 176.000 C 69.117 176.440,69.697 176.800,70.088 176.800 C 70.480 176.800,70.800 176.980,70.800 177.200 C 70.800 177.420,71.078 177.600,71.417 177.600 C 71.756 177.600,72.420 177.960,72.892 178.400 C 73.364 178.840,73.987 179.200,74.275 179.200 C 74.564 179.200,74.800 179.346,74.800 179.525 C 74.800 179.704,75.430 180.098,76.200 180.400 C 76.970 180.702,77.600 181.096,77.600 181.275 C 77.600 181.454,77.945 181.600,78.367 181.600 C 78.788 181.600,79.193 181.735,79.267 181.900 C 79.434 182.276,81.564 183.575,82.500 183.871 C 82.885 183.993,83.200 184.252,83.200 184.447 C 83.200 184.641,83.560 184.800,84.000 184.800 C 84.440 184.800,84.800 184.980,84.800 185.200 C 84.800 185.420,85.160 185.600,85.600 185.600 C 86.040 185.600,86.400 185.780,86.400 186.000 C 86.400 186.220,86.760 186.400,87.200 186.400 C 87.640 186.400,88.000 186.580,88.000 186.800 C 88.000 187.020,88.360 187.200,88.800 187.200 C 89.240 187.200,89.600 187.380,89.600 187.600 C 89.600 187.820,89.960 188.000,90.400 188.000 C 90.840 188.000,91.200 188.180,91.200 188.400 C 91.200 188.620,91.545 188.800,91.967 188.800 C 92.388 188.800,92.793 188.935,92.867 189.100 C 92.987 189.370,96.619 191.092,99.200 192.102 C 99.750 192.317,100.513 192.652,100.895 192.847 C 101.277 193.041,101.862 193.200,102.195 193.200 C 102.528 193.200,102.800 193.380,102.800 193.600 C 102.800 193.820,103.160 194.000,103.600 194.000 C 104.040 194.000,104.400 194.180,104.400 194.400 C 104.400 194.620,104.760 194.800,105.200 194.800 C 105.640 194.800,106.000 194.980,106.000 195.200 C 106.000 195.420,106.360 195.600,106.800 195.600 C 107.240 195.600,107.600 195.780,107.600 196.000 C 107.600 196.220,108.050 196.400,108.600 196.400 C 109.150 196.400,109.600 196.580,109.600 196.800 C 109.600 197.020,109.960 197.200,110.400 197.200 C 110.840 197.200,111.200 197.380,111.200 197.600 C 111.200 197.820,111.472 198.000,111.805 198.000 C 112.138 198.000,112.768 198.180,113.205 198.400 C 113.642 198.620,114.358 198.980,114.795 199.200 C 115.232 199.420,115.862 199.600,116.195 199.600 C 116.528 199.600,116.800 199.780,116.800 200.000 C 116.800 200.220,117.160 200.400,117.600 200.400 C 118.040 200.400,118.400 200.580,118.400 200.800 C 118.400 201.020,118.940 201.200,119.600 201.200 C 120.260 201.200,120.800 201.380,120.800 201.600 C 120.800 201.820,121.160 202.000,121.600 202.000 C 122.040 202.000,122.400 202.180,122.400 202.400 C 122.400 202.620,122.839 202.800,123.376 202.800 C 123.913 202.800,124.464 202.980,124.600 203.200 C 124.736 203.420,125.197 203.600,125.624 203.600 C 126.051 203.600,126.400 203.780,126.400 204.000 C 126.400 204.220,126.850 204.400,127.400 204.400 C 127.950 204.400,128.400 204.580,128.400 204.800 C 128.400 205.020,128.749 205.200,129.176 205.200 C 129.603 205.200,130.064 205.380,130.200 205.600 C 130.336 205.820,130.887 206.000,131.424 206.000 C 131.961 206.000,132.400 206.140,132.400 206.311 C 132.400 206.483,133.525 206.951,134.900 207.353 C 139.766 208.774,140.400 208.998,140.400 209.297 C 140.400 209.464,140.940 209.600,141.600 209.600 C 142.260 209.600,142.800 209.780,142.800 210.000 C 142.800 210.220,143.250 210.400,143.800 210.400 C 144.350 210.400,144.800 210.580,144.800 210.800 C 144.800 211.020,145.340 211.200,146.000 211.200 C 146.660 211.200,147.200 211.380,147.200 211.600 C 147.200 211.820,147.562 212.000,148.005 212.000 C 148.448 212.000,149.168 212.180,149.605 212.400 C 150.042 212.620,150.758 212.980,151.195 213.200 C 151.632 213.420,152.341 213.600,152.771 213.600 C 153.201 213.600,153.664 213.780,153.800 214.000 C 153.936 214.220,154.487 214.400,155.024 214.400 C 155.561 214.400,156.000 214.580,156.000 214.800 C 156.000 215.020,156.529 215.200,157.176 215.200 C 157.823 215.200,158.464 215.380,158.600 215.600 C 158.736 215.820,159.377 216.000,160.024 216.000 C 160.671 216.000,161.200 216.180,161.200 216.400 C 161.200 216.620,161.740 216.800,162.400 216.800 C 163.060 216.800,163.600 216.980,163.600 217.200 C 163.600 217.420,164.140 217.600,164.800 217.600 C 165.460 217.600,166.000 217.780,166.000 218.000 C 166.000 218.220,166.540 218.400,167.200 218.400 C 167.860 218.400,168.400 218.560,168.400 218.756 C 168.400 218.952,169.030 219.222,169.800 219.356 C 170.570 219.490,171.830 219.710,172.600 219.844 C 173.370 219.978,174.000 220.248,174.000 220.444 C 174.000 220.640,174.529 220.800,175.176 220.800 C 175.823 220.800,176.464 220.980,176.600 221.200 C 176.736 221.420,177.366 221.600,178.000 221.600 C 178.634 221.600,179.264 221.780,179.400 222.000 C 179.536 222.220,180.256 222.400,181.000 222.400 C 181.744 222.400,182.464 222.580,182.600 222.800 C 182.736 223.020,183.366 223.200,184.000 223.200 C 184.634 223.200,185.264 223.380,185.400 223.600 C 185.536 223.820,186.078 224.000,186.604 224.000 C 187.130 224.000,188.598 224.270,189.865 224.600 C 191.131 224.930,192.760 225.200,193.484 225.200 C 194.208 225.200,194.800 225.380,194.800 225.600 C 194.800 225.820,195.509 226.000,196.376 226.000 C 197.243 226.000,198.064 226.180,198.200 226.400 C 198.336 226.620,199.247 226.800,200.224 226.800 C 201.201 226.800,202.000 226.980,202.000 227.200 C 202.000 227.420,202.900 227.600,204.000 227.600 C 205.100 227.600,206.000 227.780,206.000 228.000 C 206.000 228.220,206.979 228.400,208.176 228.400 C 209.373 228.400,210.464 228.580,210.600 228.800 C 210.736 229.020,211.917 229.200,213.224 229.200 C 214.541 229.200,215.600 229.378,215.600 229.600 C 215.600 229.833,216.925 230.000,218.776 230.000 C 220.523 230.000,222.064 230.180,222.200 230.400 C 222.356 230.652,226.930 230.800,234.600 230.800 C 242.270 230.800,246.844 230.652,247.000 230.400 C 247.136 230.180,248.486 230.000,250.000 230.000 C 251.514 230.000,252.864 229.820,253.000 229.600 C 253.136 229.380,254.126 229.200,255.200 229.200 C 256.274 229.200,257.264 229.020,257.400 228.800 C 257.536 228.580,258.436 228.400,259.400 228.400 C 260.364 228.400,261.264 228.220,261.400 228.000 C 261.536 227.780,262.447 227.600,263.424 227.600 C 264.401 227.600,265.200 227.420,265.200 227.200 C 265.200 226.980,265.920 226.800,266.800 226.800 C 267.680 226.800,268.400 226.620,268.400 226.400 C 268.400 226.180,269.120 226.000,270.000 226.000 C 270.880 226.000,271.600 225.820,271.600 225.600 C 271.600 225.380,272.185 225.192,272.900 225.182 C 273.615 225.173,274.920 224.905,275.800 224.588 C 276.680 224.271,277.717 224.009,278.105 224.006 C 278.493 224.003,279.123 223.840,279.505 223.645 C 279.887 223.449,282.000 222.721,284.200 222.027 C 288.053 220.811,289.406 220.311,290.895 219.553 C 291.277 219.359,291.952 219.200,292.395 219.200 C 292.838 219.200,293.200 219.020,293.200 218.800 C 293.200 218.580,293.740 218.400,294.400 218.400 C 295.060 218.400,295.600 218.220,295.600 218.000 C 295.600 217.780,295.960 217.600,296.400 217.600 C 296.840 217.600,297.200 217.420,297.200 217.200 C 297.200 216.980,297.740 216.800,298.400 216.800 C 299.060 216.800,299.600 216.620,299.600 216.400 C 299.600 216.180,299.960 216.000,300.400 216.000 C 300.840 216.000,301.200 215.820,301.200 215.600 C 301.200 215.380,301.639 215.200,302.176 215.200 C 302.713 215.200,303.264 215.020,303.400 214.800 C 303.536 214.580,303.997 214.400,304.424 214.400 C 304.851 214.400,305.200 214.220,305.200 214.000 C 305.200 213.780,305.560 213.600,306.000 213.600 C 306.440 213.600,306.800 213.420,306.800 213.200 C 306.800 212.980,307.149 212.800,307.576 212.800 C 308.003 212.800,308.464 212.620,308.600 212.400 C 308.736 212.180,309.197 212.000,309.624 212.000 C 310.051 212.000,310.400 211.820,310.400 211.600 C 310.400 211.380,310.760 211.200,311.200 211.200 C 311.640 211.200,312.000 211.020,312.000 210.800 C 312.000 210.580,312.360 210.400,312.800 210.400 C 313.240 210.400,313.600 210.220,313.600 210.000 C 313.600 209.780,313.960 209.600,314.400 209.600 C 314.840 209.600,315.200 209.420,315.200 209.200 C 315.200 208.980,315.472 208.800,315.805 208.800 C 316.138 208.800,316.723 208.633,317.105 208.428 C 317.487 208.224,319.240 207.375,321.000 206.542 C 322.760 205.709,324.260 204.886,324.333 204.714 C 324.407 204.541,324.812 204.400,325.233 204.400 C 325.655 204.400,326.000 204.220,326.000 204.000 C 326.000 203.780,326.360 203.600,326.800 203.600 C 327.240 203.600,327.600 203.420,327.600 203.200 C 327.600 202.980,327.836 202.800,328.125 202.800 C 328.413 202.800,329.036 202.440,329.508 202.000 C 329.980 201.560,330.644 201.200,330.983 201.200 C 331.322 201.200,331.600 201.020,331.600 200.800 C 331.600 200.580,331.960 200.400,332.400 200.400 C 332.840 200.400,333.200 200.220,333.200 200.000 C 333.200 199.780,333.470 199.600,333.800 199.600 C 334.130 199.600,334.400 199.420,334.400 199.200 C 334.400 198.980,334.670 198.800,335.000 198.800 C 335.330 198.800,335.600 198.620,335.600 198.400 C 335.600 198.180,335.878 198.000,336.217 198.000 C 336.556 198.000,337.220 197.640,337.692 197.200 C 338.164 196.760,338.787 196.400,339.075 196.400 C 339.364 196.400,339.600 196.220,339.600 196.000 C 339.600 195.780,339.830 195.600,340.112 195.600 C 340.393 195.600,340.883 195.240,341.200 194.800 C 341.517 194.360,342.057 194.000,342.400 194.000 C 342.743 194.000,343.283 193.640,343.600 193.200 C 343.917 192.760,344.497 192.400,344.888 192.400 C 345.280 192.400,345.600 192.242,345.600 192.049 C 345.600 191.855,346.105 191.488,346.721 191.233 C 347.338 190.977,348.320 190.325,348.904 189.784 C 349.487 189.243,350.126 188.800,350.323 188.800 C 350.520 188.800,351.246 188.260,351.937 187.600 C 352.628 186.940,353.353 186.400,353.548 186.400 C 353.744 186.400,354.645 185.680,355.552 184.800 C 356.459 183.920,357.296 183.200,357.412 183.200 C 357.636 183.200,366.230 174.537,368.100 172.427 C 368.705 171.745,369.200 170.919,369.200 170.593 C 369.200 170.267,369.352 170.000,369.537 170.000 C 369.723 170.000,370.282 169.145,370.781 168.100 C 371.280 167.055,371.848 165.887,372.044 165.505 C 372.494 164.628,372.515 157.600,372.068 157.600 C 371.885 157.600,371.480 157.108,371.168 156.506 C 370.558 155.332,366.620 151.201,366.109 151.199 C 365.939 151.199,365.170 150.659,364.400 150.000 C 363.630 149.341,362.775 148.801,362.500 148.801 C 362.225 148.800,362.000 148.642,362.000 148.449 C 362.000 148.255,361.460 147.873,360.800 147.600 C 360.140 147.327,359.600 146.945,359.600 146.751 C 359.600 146.558,359.240 146.400,358.800 146.400 C 358.360 146.400,358.000 146.264,358.000 146.098 C 358.000 145.931,357.415 145.541,356.700 145.230 C 355.985 144.919,355.310 144.551,355.200 144.413 C 355.010 144.175,351.343 142.407,349.200 141.520 C 348.650 141.293,347.887 140.948,347.505 140.753 C 347.123 140.559,346.538 140.400,346.205 140.400 C 345.872 140.400,345.600 140.220,345.600 140.000 C 345.600 139.780,345.240 139.600,344.800 139.600 C 344.360 139.600,344.000 139.420,344.000 139.200 C 344.000 138.980,343.640 138.800,343.200 138.800 C 342.760 138.800,342.400 138.620,342.400 138.400 C 342.400 138.180,341.950 138.000,341.400 138.000 C 340.850 138.000,340.400 137.820,340.400 137.600 C 340.400 137.380,340.128 137.200,339.795 137.200 C 339.462 137.200,338.832 137.020,338.395 136.800 C 337.958 136.580,337.242 136.220,336.805 136.000 C 336.368 135.780,335.738 135.600,335.405 135.600 C 335.072 135.600,334.800 135.420,334.800 135.200 C 334.800 134.980,334.361 134.800,333.824 134.800 C 333.287 134.800,332.736 134.620,332.600 134.400 C 332.464 134.180,332.003 134.000,331.576 134.000 C 331.149 134.000,330.800 133.820,330.800 133.600 C 330.800 133.380,330.260 133.200,329.600 133.200 C 328.940 133.200,328.400 133.020,328.400 132.800 C 328.400 132.580,327.961 132.400,327.424 132.400 C 326.887 132.400,326.336 132.220,326.200 132.000 C 326.064 131.780,325.603 131.600,325.176 131.600 C 324.749 131.600,324.400 131.420,324.400 131.200 C 324.400 130.980,323.961 130.800,323.424 130.800 C 322.887 130.800,322.336 130.620,322.200 130.400 C 322.064 130.180,321.513 130.000,320.976 130.000 C 320.439 130.000,320.000 129.820,320.000 129.600 C 320.000 129.380,319.460 129.200,318.800 129.200 C 318.140 129.200,317.600 129.020,317.600 128.800 C 317.600 128.580,317.060 128.400,316.400 128.400 C 315.740 128.400,315.200 128.220,315.200 128.000 C 315.200 127.780,314.761 127.600,314.224 127.600 C 313.687 127.600,313.136 127.420,313.000 127.200 C 312.864 126.980,312.349 126.800,311.856 126.800 C 311.363 126.800,310.789 126.644,310.580 126.454 C 310.371 126.263,308.940 125.798,307.400 125.419 C 305.860 125.041,304.287 124.567,303.905 124.366 C 303.523 124.165,302.758 124.000,302.205 124.000 C 301.652 124.000,301.200 123.820,301.200 123.600 C 301.200 123.380,300.660 123.200,300.000 123.200 C 299.340 123.200,298.800 123.020,298.800 122.800 C 298.800 122.580,298.260 122.400,297.600 122.400 C 296.940 122.400,296.400 122.220,296.400 122.000 C 296.400 121.780,295.871 121.600,295.224 121.600 C 294.577 121.600,293.936 121.420,293.800 121.200 C 293.664 120.980,292.933 120.800,292.176 120.800 C 291.419 120.800,290.800 120.620,290.800 120.400 C 290.800 120.180,290.361 120.000,289.824 120.000 C 289.287 120.000,288.736 119.820,288.600 119.600 C 288.464 119.380,287.834 119.200,287.200 119.200 C 286.566 119.200,285.936 119.020,285.800 118.800 C 285.664 118.580,285.023 118.400,284.376 118.400 C 283.729 118.400,283.200 118.220,283.200 118.000 C 283.200 117.780,282.581 117.600,281.824 117.600 C 281.067 117.600,280.336 117.420,280.200 117.200 C 280.064 116.980,279.423 116.800,278.776 116.800 C 278.129 116.800,277.600 116.620,277.600 116.400 C 277.600 116.180,276.880 116.000,276.000 116.000 C 275.120 116.000,274.400 115.820,274.400 115.600 C 274.400 115.380,273.871 115.200,273.224 115.200 C 272.577 115.200,271.936 115.020,271.800 114.800 C 271.664 114.580,271.034 114.400,270.400 114.400 C 269.766 114.400,269.136 114.220,269.000 114.000 C 268.864 113.780,268.133 113.600,267.376 113.600 C 266.619 113.600,266.000 113.420,266.000 113.200 C 266.000 112.980,265.381 112.800,264.624 112.800 C 263.867 112.800,263.148 112.640,263.027 112.444 C 262.906 112.249,262.221 111.992,261.504 111.873 C 260.787 111.755,259.480 111.473,258.600 111.247 C 257.720 111.021,256.460 110.724,255.800 110.588 C 255.140 110.451,254.240 110.186,253.800 109.997 C 252.975 109.644,252.221 109.490,247.332 108.677 C 245.755 108.415,244.330 108.065,244.166 107.900 C 244.001 107.735,243.177 107.600,242.333 107.600 C 241.490 107.600,240.800 107.420,240.800 107.200 C 240.800 106.980,240.181 106.800,239.424 106.800 C 238.667 106.800,237.936 106.620,237.800 106.400 C 237.664 106.180,236.854 106.000,236.000 106.000 C 235.146 106.000,234.336 105.820,234.200 105.600 C 234.064 105.380,233.243 105.200,232.376 105.200 C 231.509 105.200,230.800 105.020,230.800 104.800 C 230.800 104.580,229.900 104.400,228.800 104.400 C 227.700 104.400,226.800 104.220,226.800 104.000 C 226.800 103.780,226.080 103.600,225.200 103.600 C 224.320 103.600,223.600 103.420,223.600 103.200 C 223.600 102.980,222.801 102.800,221.824 102.800 C 220.847 102.800,219.936 102.620,219.800 102.400 C 219.664 102.180,218.753 102.000,217.776 102.000 C 216.799 102.000,216.000 101.820,216.000 101.600 C 216.000 101.380,215.111 101.200,214.024 101.200 C 212.937 101.200,211.936 101.020,211.800 100.800 C 211.664 100.580,210.573 100.400,209.376 100.400 C 208.179 100.400,207.200 100.220,207.200 100.000 C 207.200 99.780,206.300 99.600,205.200 99.600 C 204.100 99.600,203.200 99.420,203.200 99.200 C 203.200 98.980,202.221 98.800,201.024 98.800 C 199.827 98.800,198.736 98.620,198.600 98.400 C 198.464 98.180,197.193 98.000,195.776 98.000 C 194.325 98.000,193.200 97.825,193.200 97.600 C 193.200 97.375,192.075 97.200,190.624 97.200 C 189.207 97.200,187.936 97.020,187.800 96.800 C 187.664 96.580,186.044 96.400,184.200 96.400 C 182.356 96.400,180.736 96.220,180.600 96.000 C 180.443 95.747,175.604 95.600,167.400 95.600 C 159.196 95.600,154.357 95.747,154.200 96.000 M202.123 109.163 C 202.363 109.403,203.514 109.600,204.680 109.600 C 205.846 109.600,206.800 109.780,206.800 110.000 C 206.800 110.220,207.340 110.400,208.000 110.400 C 208.660 110.400,209.200 110.580,209.200 110.800 C 209.200 111.020,209.650 111.200,210.200 111.200 C 210.750 111.200,211.200 111.380,211.200 111.600 C 211.200 111.820,211.483 112.000,211.829 112.000 C 213.265 112.000,213.670 113.064,213.463 116.302 C 213.215 120.199,212.815 122.400,212.356 122.400 C 212.160 122.400,212.002 122.715,212.005 123.100 C 212.012 123.950,208.441 131.160,207.597 132.000 C 207.266 132.330,206.740 133.095,206.430 133.700 C 206.119 134.305,205.546 134.800,205.156 134.800 C 204.766 134.800,204.336 134.980,204.200 135.200 C 204.064 135.421,202.270 135.600,200.200 135.600 C 198.130 135.600,196.336 135.779,196.200 136.000 C 196.055 136.234,193.737 136.400,190.600 136.400 C 187.463 136.400,185.145 136.566,185.000 136.800 C 184.845 137.051,180.716 137.200,173.937 137.200 L 163.121 137.200 161.360 135.336 C 160.392 134.311,159.600 133.271,159.600 133.025 C 159.600 132.778,159.240 132.317,158.800 132.000 C 158.360 131.683,158.000 131.236,158.000 131.006 C 158.000 130.777,157.370 129.654,156.600 128.510 C 155.830 127.367,155.200 126.284,155.200 126.104 C 155.200 125.924,154.840 125.517,154.400 125.200 C 153.960 124.883,153.600 124.303,153.600 123.912 C 153.600 123.520,153.420 123.200,153.200 123.200 C 152.980 123.200,152.800 122.840,152.800 122.400 C 152.800 121.960,152.641 121.600,152.447 121.600 C 152.252 121.600,151.990 121.285,151.864 120.900 C 151.738 120.515,151.177 119.430,150.618 118.489 C 150.058 117.548,149.600 116.513,149.600 116.189 C 149.600 115.865,149.420 115.600,149.200 115.600 C 148.980 115.600,148.800 115.150,148.800 114.600 C 148.800 114.050,148.620 113.600,148.400 113.600 C 147.843 113.600,147.899 112.261,148.480 111.680 C 148.744 111.416,149.363 111.200,149.856 111.200 C 150.349 111.200,150.864 111.020,151.000 110.800 C 151.136 110.580,152.126 110.400,153.200 110.400 C 154.274 110.400,155.264 110.220,155.400 110.000 C 155.536 109.780,157.077 109.600,158.824 109.600 C 160.613 109.600,162.000 109.430,162.000 109.211 C 162.000 108.376,201.289 108.329,202.123 109.163 M133.209 116.253 C 134.084 116.832,134.800 117.464,134.800 117.657 C 134.800 117.850,135.340 118.572,136.000 119.263 C 136.660 119.954,137.200 120.762,137.200 121.059 C 137.200 121.357,137.336 121.600,137.502 121.600 C 137.669 121.600,138.059 122.185,138.370 122.900 C 138.681 123.615,139.040 124.290,139.168 124.400 C 139.620 124.790,141.200 128.084,141.200 128.638 C 141.200 128.947,141.380 129.200,141.600 129.200 C 141.820 129.200,142.001 129.515,142.002 129.900 C 142.004 130.285,142.235 131.050,142.515 131.600 C 142.796 132.150,143.276 133.410,143.583 134.400 C 143.889 135.390,144.288 136.371,144.470 136.580 C 145.114 137.321,144.846 140.008,144.100 140.283 C 143.715 140.425,143.310 140.669,143.200 140.824 C 142.949 141.178,139.373 142.400,138.586 142.400 C 138.264 142.400,138.000 142.560,138.000 142.756 C 138.000 142.952,137.370 143.222,136.600 143.356 C 135.830 143.490,134.570 143.710,133.800 143.844 C 133.030 143.978,132.400 144.248,132.400 144.444 C 132.400 144.988,127.306 144.868,126.325 144.300 C 125.175 143.635,115.200 133.663,115.200 133.179 C 115.200 132.971,114.480 132.059,113.600 131.152 C 112.720 130.245,112.000 129.295,112.000 129.040 C 112.000 128.785,111.640 128.317,111.200 128.000 C 110.760 127.683,110.400 127.103,110.400 126.712 C 110.400 126.320,110.220 126.000,110.000 126.000 C 109.780 126.000,109.600 125.730,109.600 125.400 C 109.600 125.070,109.420 124.800,109.200 124.800 C 108.397 124.800,108.831 123.766,110.042 122.796 C 110.725 122.248,111.522 121.575,111.813 121.300 C 112.105 121.025,112.626 120.800,112.971 120.800 C 113.317 120.800,113.600 120.620,113.600 120.400 C 113.600 120.180,113.960 120.000,114.400 120.000 C 114.840 120.000,115.200 119.820,115.200 119.600 C 115.200 119.380,115.560 119.200,116.000 119.200 C 116.440 119.200,116.800 119.020,116.800 118.800 C 116.800 118.580,117.239 118.400,117.776 118.400 C 118.313 118.400,118.864 118.220,119.000 118.000 C 119.136 117.780,119.676 117.600,120.200 117.600 C 120.724 117.600,121.264 117.420,121.400 117.200 C 121.536 116.980,122.076 116.800,122.600 116.800 C 123.124 116.800,123.664 116.620,123.800 116.400 C 123.936 116.180,124.847 116.000,125.824 116.000 C 126.801 116.000,127.600 115.820,127.600 115.600 C 127.600 114.710,131.576 115.173,133.209 116.253 M232.400 115.600 C 232.400 115.820,233.289 116.000,234.376 116.000 C 235.463 116.000,236.464 116.180,236.600 116.400 C 236.736 116.620,237.546 116.800,238.400 116.800 C 239.254 116.800,240.064 116.980,240.200 117.200 C 240.336 117.420,240.966 117.600,241.600 117.600 C 242.234 117.600,242.864 117.780,243.000 118.000 C 243.136 118.220,243.777 118.400,244.424 118.400 C 245.071 118.400,245.600 118.580,245.600 118.800 C 245.600 119.020,246.140 119.200,246.800 119.200 C 247.460 119.200,248.000 119.380,248.000 119.600 C 248.000 119.820,248.360 120.000,248.800 120.000 C 249.240 120.000,249.600 120.180,249.600 120.400 C 249.600 120.620,249.883 120.800,250.229 120.800 C 250.574 120.800,251.114 121.057,251.429 121.371 C 252.084 122.027,252.194 123.200,251.600 123.200 C 251.380 123.200,251.200 123.740,251.200 124.400 C 251.200 125.060,251.054 125.600,250.875 125.600 C 250.696 125.600,250.302 126.230,250.000 127.000 C 249.698 127.770,249.304 128.400,249.125 128.400 C 248.946 128.400,248.800 128.760,248.800 129.200 C 248.800 129.640,248.620 130.000,248.400 130.000 C 248.180 130.000,248.000 130.360,248.000 130.800 C 248.000 131.240,247.820 131.600,247.600 131.600 C 247.380 131.600,247.200 131.945,247.200 132.367 C 247.200 132.788,247.065 133.193,246.900 133.267 C 246.524 133.434,245.225 135.564,244.929 136.500 C 244.807 136.885,244.548 137.200,244.353 137.200 C 244.159 137.200,244.000 137.560,244.000 138.000 C 244.000 138.440,243.838 138.800,243.640 138.800 C 243.441 138.800,242.946 139.609,242.540 140.599 C 242.133 141.588,241.665 142.398,241.500 142.399 C 241.335 142.399,241.200 142.670,241.200 143.000 C 241.200 143.330,241.020 143.600,240.800 143.600 C 240.580 143.600,240.400 143.890,240.400 144.244 C 240.400 144.937,239.527 144.894,236.100 144.029 C 232.000 142.994,230.873 142.733,228.800 142.334 C 227.590 142.102,226.429 141.751,226.220 141.556 C 226.011 141.360,225.336 141.200,224.720 141.200 C 224.104 141.200,223.600 141.020,223.600 140.800 C 223.600 140.580,223.227 140.400,222.771 140.400 C 221.171 140.400,220.716 139.427,220.948 136.496 C 221.291 132.162,221.655 130.000,222.040 130.000 C 222.238 130.000,222.400 129.381,222.400 128.624 C 222.400 127.867,222.580 127.136,222.800 127.000 C 223.020 126.864,223.200 126.234,223.200 125.600 C 223.200 124.966,223.338 124.362,223.507 124.257 C 223.676 124.153,224.164 122.792,224.591 121.234 C 225.018 119.675,225.509 118.400,225.684 118.400 C 225.858 118.400,226.000 118.124,226.000 117.786 C 226.000 116.313,227.701 115.250,230.100 115.224 C 231.383 115.211,232.400 115.377,232.400 115.600 M270.800 126.400 C 270.800 126.620,271.419 126.800,272.176 126.800 C 272.933 126.800,273.664 126.980,273.800 127.200 C 273.936 127.420,274.487 127.600,275.024 127.600 C 275.561 127.600,276.000 127.780,276.000 128.000 C 276.000 128.220,276.450 128.400,277.000 128.400 C 277.550 128.400,278.000 128.580,278.000 128.800 C 278.000 129.020,278.450 129.200,279.000 129.200 C 279.550 129.200,280.000 129.380,280.000 129.600 C 280.000 129.820,280.349 130.000,280.776 130.000 C 281.203 130.000,281.664 130.180,281.800 130.400 C 281.936 130.620,282.487 130.800,283.024 130.800 C 283.561 130.800,284.000 130.980,284.000 131.200 C 284.000 131.420,284.360 131.600,284.800 131.600 C 285.240 131.600,285.600 131.780,285.600 132.000 C 285.600 132.220,285.960 132.400,286.400 132.400 C 286.840 132.400,287.200 132.580,287.200 132.800 C 287.200 133.020,287.560 133.200,288.000 133.200 C 288.440 133.200,288.800 133.380,288.800 133.600 C 288.800 133.820,289.025 134.000,289.300 134.000 C 290.283 134.001,292.000 135.875,292.000 136.947 C 292.000 137.526,291.820 138.000,291.600 138.000 C 291.380 138.000,291.200 138.360,291.200 138.800 C 291.200 139.240,291.020 139.600,290.800 139.600 C 290.580 139.600,290.400 139.883,290.400 140.229 C 290.400 140.574,290.175 141.094,289.900 141.384 C 288.859 142.480,288.000 143.620,287.999 143.905 C 287.999 144.067,287.459 144.830,286.800 145.600 C 286.141 146.370,285.601 147.137,285.601 147.304 C 285.600 147.471,285.060 148.172,284.400 148.863 C 283.740 149.554,283.200 150.290,283.200 150.499 C 283.200 150.708,282.698 151.356,282.085 151.940 C 281.471 152.523,280.530 153.630,279.993 154.400 C 278.039 157.203,277.422 157.600,275.018 157.600 C 273.798 157.600,272.800 157.420,272.800 157.200 C 272.800 156.980,272.170 156.800,271.400 156.800 C 270.630 156.800,270.000 156.620,270.000 156.400 C 270.000 156.180,269.381 156.000,268.624 156.000 C 267.867 156.000,267.136 155.820,267.000 155.600 C 266.864 155.380,266.401 155.200,265.971 155.200 C 265.541 155.200,264.832 155.020,264.395 154.800 C 263.958 154.580,263.242 154.220,262.805 154.000 C 262.368 153.780,261.648 153.600,261.205 153.600 C 260.762 153.600,260.400 153.420,260.400 153.200 C 260.400 152.980,260.040 152.800,259.600 152.800 C 259.160 152.800,258.800 152.620,258.800 152.400 C 258.800 152.180,258.527 152.000,258.192 152.000 C 257.741 152.000,257.643 151.717,257.812 150.900 C 258.239 148.837,258.877 146.601,259.239 145.905 C 259.438 145.523,259.600 144.938,259.600 144.605 C 259.600 144.272,259.780 144.000,260.000 144.000 C 260.220 144.000,260.400 143.460,260.400 142.800 C 260.400 142.140,260.580 141.600,260.800 141.600 C 261.020 141.600,261.200 141.240,261.200 140.800 C 261.200 140.360,261.380 140.000,261.600 140.000 C 261.820 140.000,262.000 139.550,262.000 139.000 C 262.000 138.450,262.180 138.000,262.400 138.000 C 262.620 138.000,262.800 137.640,262.800 137.200 C 262.800 136.760,262.980 136.400,263.200 136.400 C 263.420 136.400,263.600 136.040,263.600 135.600 C 263.600 135.160,263.780 134.800,264.000 134.800 C 264.220 134.800,264.400 134.547,264.400 134.238 C 264.400 133.572,266.068 130.259,266.500 130.067 C 266.665 129.993,266.800 129.588,266.800 129.167 C 266.800 128.745,266.936 128.400,267.102 128.400 C 267.269 128.400,267.644 127.860,267.936 127.200 C 268.460 126.017,270.800 125.363,270.800 126.400 M98.358 132.700 C 102.061 136.450,105.064 139.142,107.479 140.875 C 109.875 142.596,110.948 143.459,112.232 144.700 C 112.744 145.195,113.353 145.600,113.585 145.600 C 113.817 145.600,114.572 146.140,115.263 146.800 C 115.954 147.460,116.722 148.000,116.971 148.000 C 117.220 148.000,117.683 148.360,118.000 148.800 C 118.317 149.240,118.857 149.600,119.200 149.600 C 119.543 149.600,120.083 149.960,120.400 150.400 C 120.717 150.840,121.297 151.200,121.688 151.200 C 122.080 151.200,122.400 151.358,122.400 151.551 C 122.400 151.745,122.940 152.127,123.600 152.400 C 124.260 152.673,124.800 153.055,124.800 153.249 C 124.800 153.442,125.036 153.600,125.325 153.600 C 125.613 153.600,126.198 153.915,126.625 154.300 C 127.051 154.685,127.940 155.270,128.600 155.599 C 129.260 155.929,129.890 156.313,130.000 156.452 C 130.110 156.591,131.595 157.375,133.300 158.194 C 135.005 159.012,136.400 159.843,136.400 160.041 C 136.400 160.238,136.760 160.400,137.200 160.400 C 137.640 160.400,138.000 160.580,138.000 160.800 C 138.000 161.020,138.360 161.200,138.800 161.200 C 139.240 161.200,139.600 161.380,139.600 161.600 C 139.600 161.820,139.960 162.000,140.400 162.000 C 140.840 162.000,141.200 162.146,141.200 162.325 C 141.200 162.504,141.830 162.898,142.600 163.200 C 143.370 163.502,144.000 163.896,144.000 164.075 C 144.000 164.254,144.360 164.400,144.800 164.400 C 145.240 164.400,145.600 164.580,145.600 164.800 C 145.600 165.020,145.960 165.200,146.400 165.200 C 146.840 165.200,147.200 165.380,147.200 165.600 C 147.200 165.820,147.560 166.000,148.000 166.000 C 148.440 166.000,148.800 166.180,148.800 166.400 C 148.800 166.620,149.160 166.800,149.600 166.800 C 150.040 166.800,150.400 166.980,150.400 167.200 C 150.400 167.420,150.760 167.600,151.200 167.600 C 151.640 167.600,152.000 167.747,152.000 167.928 C 152.000 168.108,152.900 168.500,154.000 168.800 C 155.100 169.100,156.000 169.492,156.000 169.672 C 156.000 169.853,156.360 170.000,156.800 170.000 C 157.240 170.000,157.600 170.180,157.600 170.400 C 157.600 170.620,157.872 170.800,158.205 170.800 C 158.538 170.800,159.123 170.957,159.505 171.150 C 162.598 172.708,163.776 173.200,164.414 173.200 C 164.820 173.200,165.245 173.349,165.357 173.531 C 165.470 173.713,166.695 174.180,168.081 174.568 C 169.466 174.957,170.913 175.438,171.295 175.638 C 171.677 175.837,172.262 176.000,172.595 176.000 C 172.928 176.000,173.200 176.180,173.200 176.400 C 173.200 176.620,173.740 176.800,174.400 176.800 C 175.060 176.800,175.600 176.980,175.600 177.200 C 175.600 177.420,176.129 177.600,176.776 177.600 C 177.423 177.600,178.064 177.780,178.200 178.000 C 178.336 178.220,178.977 178.400,179.624 178.400 C 180.271 178.400,180.800 178.580,180.800 178.800 C 180.800 179.020,181.340 179.200,182.000 179.200 C 182.660 179.200,183.200 179.380,183.200 179.600 C 183.200 179.820,183.920 180.000,184.800 180.000 C 185.680 180.000,186.400 180.180,186.400 180.400 C 186.400 180.620,187.120 180.800,188.000 180.800 C 188.880 180.800,189.600 180.980,189.600 181.200 C 189.600 181.420,190.309 181.600,191.176 181.600 C 192.043 181.600,192.864 181.780,193.000 182.000 C 193.136 182.220,194.137 182.400,195.224 182.400 C 196.311 182.400,197.200 182.580,197.200 182.800 C 197.200 183.033,198.533 183.200,200.400 183.200 C 202.267 183.200,203.600 183.367,203.600 183.600 C 203.600 183.853,206.392 184.000,211.176 184.000 C 215.796 184.000,218.849 183.844,219.000 183.600 C 219.139 183.375,221.071 183.200,223.424 183.200 C 225.941 183.200,227.600 183.041,227.600 182.800 C 227.600 182.569,228.859 182.400,230.576 182.400 C 232.213 182.400,233.664 182.220,233.800 182.000 C 233.936 181.780,235.027 181.600,236.224 181.600 C 237.421 181.600,238.400 181.420,238.400 181.200 C 238.400 180.980,239.300 180.800,240.400 180.800 C 241.500 180.800,242.400 180.620,242.400 180.400 C 242.400 180.180,243.109 180.000,243.976 180.000 C 244.843 180.000,245.664 179.820,245.800 179.600 C 245.936 179.380,246.746 179.200,247.600 179.200 C 248.454 179.200,249.264 179.020,249.400 178.800 C 249.536 178.580,250.166 178.400,250.800 178.400 C 251.434 178.400,252.064 178.220,252.200 178.000 C 252.336 177.780,253.067 177.600,253.824 177.600 C 254.581 177.600,255.200 177.420,255.200 177.200 C 255.200 176.980,255.639 176.800,256.176 176.800 C 256.713 176.800,257.264 176.620,257.400 176.400 C 257.536 176.180,258.076 176.000,258.600 176.000 C 259.124 176.000,259.664 175.820,259.800 175.600 C 259.936 175.380,260.373 175.200,260.771 175.200 C 261.630 175.200,265.810 173.896,267.914 172.971 C 268.731 172.612,269.760 172.180,270.200 172.010 C 271.971 171.327,275.008 169.782,275.133 169.500 C 275.207 169.335,275.612 169.200,276.033 169.200 C 276.455 169.200,276.800 169.020,276.800 168.800 C 276.800 168.580,277.160 168.400,277.600 168.400 C 278.040 168.400,278.400 168.220,278.400 168.000 C 278.400 167.780,278.678 167.600,279.017 167.600 C 279.356 167.600,280.020 167.240,280.492 166.800 C 280.964 166.360,281.587 166.000,281.875 166.000 C 282.164 166.000,282.400 165.820,282.400 165.600 C 282.400 165.380,282.636 165.200,282.925 165.200 C 283.213 165.200,283.836 164.840,284.308 164.400 C 284.780 163.960,285.327 163.600,285.524 163.600 C 285.721 163.600,286.446 163.060,287.137 162.400 C 287.828 161.740,288.505 161.200,288.643 161.200 C 288.781 161.200,289.638 160.489,290.547 159.620 C 296.228 154.192,297.200 153.209,297.200 152.898 C 297.200 152.707,297.515 152.202,297.900 151.775 C 298.285 151.349,298.855 150.505,299.168 149.900 C 299.480 149.295,299.885 148.800,300.068 148.800 C 300.250 148.800,300.400 148.440,300.400 148.000 C 300.400 147.560,300.580 147.200,300.800 147.200 C 301.020 147.200,301.200 146.840,301.200 146.400 C 301.200 145.960,301.368 145.600,301.573 145.600 C 301.779 145.600,302.004 145.105,302.073 144.500 C 302.203 143.375,305.200 142.489,305.200 143.576 C 305.200 143.809,305.740 144.000,306.400 144.000 C 307.060 144.000,307.600 144.180,307.600 144.400 C 307.600 144.620,308.050 144.800,308.600 144.800 C 309.150 144.800,309.600 144.980,309.600 145.200 C 309.600 145.420,309.960 145.600,310.400 145.600 C 310.840 145.600,311.200 145.780,311.200 146.000 C 311.200 146.220,311.560 146.400,312.000 146.400 C 312.440 146.400,312.800 146.580,312.800 146.800 C 312.800 147.020,313.070 147.200,313.400 147.200 C 313.730 147.200,314.000 147.380,314.000 147.600 C 314.000 147.820,314.197 148.000,314.437 148.000 C 315.123 148.000,320.000 153.052,320.000 153.763 C 320.000 154.113,320.180 154.400,320.400 154.400 C 322.285 154.400,320.249 159.391,317.238 162.152 C 316.490 162.838,315.500 163.760,315.038 164.200 C 314.577 164.640,313.705 165.255,313.100 165.568 C 312.495 165.880,312.000 166.285,312.000 166.468 C 312.000 166.650,311.730 166.800,311.400 166.800 C 311.070 166.800,310.800 166.980,310.800 167.200 C 310.800 167.420,310.530 167.600,310.200 167.600 C 309.870 167.600,309.600 167.780,309.600 168.000 C 309.600 168.220,309.370 168.400,309.088 168.400 C 308.807 168.400,308.317 168.760,308.000 169.200 C 307.683 169.640,307.103 170.000,306.712 170.000 C 306.320 170.000,306.000 170.180,306.000 170.400 C 306.000 170.620,305.764 170.800,305.475 170.800 C 305.187 170.800,304.564 171.160,304.092 171.600 C 303.620 172.040,302.956 172.400,302.617 172.400 C 302.278 172.400,302.000 172.580,302.000 172.800 C 302.000 173.020,301.640 173.200,301.200 173.200 C 300.760 173.200,300.400 173.359,300.400 173.554 C 300.400 173.749,299.725 174.222,298.900 174.606 C 293.812 176.969,292.185 177.796,292.067 178.080 C 291.993 178.256,291.588 178.400,291.167 178.400 C 290.745 178.400,290.400 178.580,290.400 178.800 C 290.400 179.020,290.040 179.200,289.600 179.200 C 289.160 179.200,288.800 179.380,288.800 179.600 C 288.800 179.820,288.440 180.000,288.000 180.000 C 287.560 180.000,287.200 180.180,287.200 180.400 C 287.200 180.620,286.840 180.800,286.400 180.800 C 285.960 180.800,285.600 180.980,285.600 181.200 C 285.600 181.420,285.240 181.600,284.800 181.600 C 284.360 181.600,284.000 181.780,284.000 182.000 C 284.000 182.220,283.728 182.400,283.395 182.400 C 283.062 182.400,282.432 182.580,281.995 182.800 C 281.558 183.020,280.842 183.380,280.405 183.600 C 279.968 183.820,279.338 184.000,279.005 184.000 C 278.672 184.000,278.400 184.180,278.400 184.400 C 278.400 184.620,278.040 184.800,277.600 184.800 C 277.160 184.800,276.800 184.980,276.800 185.200 C 276.800 185.420,276.350 185.600,275.800 185.600 C 275.250 185.600,274.800 185.780,274.800 186.000 C 274.800 186.220,274.451 186.400,274.024 186.400 C 273.597 186.400,273.136 186.580,273.000 186.800 C 272.864 187.020,272.313 187.200,271.776 187.200 C 271.239 187.200,270.800 187.380,270.800 187.600 C 270.800 187.820,270.260 188.000,269.600 188.000 C 268.940 188.000,268.400 188.180,268.400 188.400 C 268.400 188.620,267.950 188.800,267.400 188.800 C 266.850 188.800,266.400 188.980,266.400 189.200 C 266.400 189.420,265.961 189.600,265.424 189.600 C 264.887 189.600,264.336 189.780,264.200 190.000 C 264.064 190.220,263.423 190.400,262.776 190.400 C 262.129 190.400,261.600 190.560,261.600 190.756 C 261.600 190.952,261.015 191.212,260.300 191.333 C 259.137 191.530,257.468 191.927,252.200 193.260 C 251.320 193.483,249.924 193.760,249.097 193.875 C 248.271 193.990,247.495 194.245,247.374 194.442 C 247.252 194.639,246.364 194.800,245.400 194.800 C 244.436 194.800,243.536 194.980,243.400 195.200 C 243.264 195.420,242.094 195.600,240.800 195.600 C 239.506 195.600,238.336 195.780,238.200 196.000 C 238.062 196.223,236.204 196.400,234.000 196.400 C 231.796 196.400,229.938 196.577,229.800 196.800 C 229.662 197.023,227.804 197.200,225.600 197.200 C 223.396 197.200,221.538 197.023,221.400 196.800 C 221.264 196.580,219.554 196.400,217.600 196.400 C 215.646 196.400,213.936 196.220,213.800 196.000 C 213.664 195.780,212.483 195.600,211.176 195.600 C 209.859 195.600,208.800 195.422,208.800 195.200 C 208.800 194.980,207.821 194.800,206.624 194.800 C 205.427 194.800,204.336 194.620,204.200 194.400 C 204.064 194.180,203.279 194.000,202.456 194.000 C 201.633 194.000,200.789 193.838,200.580 193.641 C 200.371 193.444,199.480 193.186,198.600 193.070 C 197.720 192.953,195.650 192.571,194.000 192.220 C 192.350 191.869,190.231 191.472,189.291 191.338 C 188.351 191.204,187.485 190.938,187.367 190.747 C 187.249 190.556,186.634 190.400,186.000 190.400 C 185.366 190.400,184.736 190.220,184.600 190.000 C 184.464 189.780,183.733 189.600,182.976 189.600 C 182.219 189.600,181.600 189.420,181.600 189.200 C 181.600 188.980,180.880 188.800,180.000 188.800 C 179.120 188.800,178.400 188.620,178.400 188.400 C 178.400 188.180,177.860 188.000,177.200 188.000 C 176.540 188.000,176.000 187.820,176.000 187.600 C 176.000 187.380,175.370 187.200,174.600 187.200 C 173.830 187.200,173.200 187.020,173.200 186.800 C 173.200 186.580,172.671 186.400,172.024 186.400 C 171.377 186.400,170.736 186.220,170.600 186.000 C 170.464 185.780,169.823 185.600,169.176 185.600 C 168.529 185.600,168.000 185.420,168.000 185.200 C 168.000 184.980,167.370 184.800,166.600 184.800 C 165.830 184.800,165.200 184.620,165.200 184.400 C 165.200 184.180,164.660 184.000,164.000 184.000 C 163.340 184.000,162.800 183.820,162.800 183.600 C 162.800 183.380,162.260 183.200,161.600 183.200 C 160.940 183.200,160.400 183.020,160.400 182.800 C 160.400 182.580,159.860 182.400,159.200 182.400 C 158.540 182.400,158.000 182.220,158.000 182.000 C 158.000 181.780,157.561 181.600,157.024 181.600 C 156.487 181.600,155.936 181.420,155.800 181.200 C 155.664 180.980,155.124 180.800,154.600 180.800 C 154.076 180.800,153.536 180.620,153.400 180.400 C 153.264 180.180,152.713 180.000,152.176 180.000 C 151.639 180.000,151.200 179.820,151.200 179.600 C 151.200 179.380,150.660 179.200,150.000 179.200 C 149.340 179.200,148.800 179.020,148.800 178.800 C 148.800 178.580,148.260 178.400,147.600 178.400 C 146.940 178.400,146.400 178.220,146.400 178.000 C 146.400 177.780,145.980 177.600,145.467 177.600 C 144.953 177.600,144.416 177.482,144.272 177.338 C 143.874 176.941,137.498 174.806,136.700 174.803 C 136.315 174.801,136.000 174.620,136.000 174.400 C 136.000 174.180,135.550 174.000,135.000 174.000 C 134.450 174.000,134.000 173.820,134.000 173.600 C 134.000 173.380,133.561 173.200,133.024 173.200 C 132.487 173.200,131.936 173.020,131.800 172.800 C 131.664 172.580,131.203 172.400,130.776 172.400 C 130.349 172.400,130.000 172.220,130.000 172.000 C 130.000 171.780,129.460 171.600,128.800 171.600 C 128.140 171.600,127.600 171.420,127.600 171.200 C 127.600 170.980,127.240 170.800,126.800 170.800 C 126.360 170.800,126.000 170.620,126.000 170.400 C 126.000 170.180,125.550 170.000,125.000 170.000 C 124.450 170.000,124.000 169.820,124.000 169.600 C 124.000 169.380,123.640 169.200,123.200 169.200 C 122.760 169.200,122.400 169.020,122.400 168.800 C 122.400 168.580,122.128 168.400,121.795 168.400 C 121.462 168.400,120.832 168.220,120.395 168.000 C 119.958 167.780,119.242 167.420,118.805 167.200 C 118.368 166.980,117.738 166.800,117.405 166.800 C 117.072 166.800,116.800 166.620,116.800 166.400 C 116.800 166.180,116.440 166.000,116.000 166.000 C 115.560 166.000,115.200 165.820,115.200 165.600 C 115.200 165.380,114.928 165.200,114.595 165.200 C 114.007 165.200,113.582 165.033,111.705 164.062 C 111.213 163.808,110.538 163.600,110.205 163.600 C 109.872 163.600,109.600 163.420,109.600 163.200 C 109.600 162.980,109.255 162.800,108.833 162.800 C 108.412 162.800,108.007 162.659,107.933 162.487 C 107.822 162.224,105.657 161.124,98.900 157.895 C 98.405 157.658,98.000 157.315,98.000 157.132 C 98.000 156.950,97.640 156.800,97.200 156.800 C 96.760 156.800,96.400 156.620,96.400 156.400 C 96.400 156.180,96.122 156.000,95.783 156.000 C 95.444 156.000,94.780 155.640,94.308 155.200 C 93.836 154.760,93.213 154.400,92.925 154.400 C 92.636 154.400,92.400 154.220,92.400 154.000 C 92.400 153.780,92.130 153.600,91.800 153.600 C 91.470 153.600,91.200 153.450,91.200 153.268 C 91.200 153.085,90.705 152.680,90.100 152.368 C 89.495 152.055,88.523 151.305,87.940 150.700 C 87.356 150.095,86.681 149.600,86.440 149.600 C 86.198 149.600,86.000 149.420,86.000 149.200 C 86.000 148.980,85.799 148.800,85.554 148.800 C 84.956 148.800,82.400 145.981,82.400 145.322 C 82.400 145.035,82.220 144.800,82.000 144.800 C 81.780 144.800,81.600 144.530,81.600 144.200 C 81.600 143.870,81.420 143.600,81.200 143.600 C 80.980 143.600,80.800 143.060,80.800 142.400 C 80.800 141.740,80.620 141.200,80.400 141.200 C 80.180 141.200,80.000 140.300,80.000 139.200 C 80.000 138.100,80.180 137.200,80.400 137.200 C 80.620 137.200,80.800 136.840,80.800 136.400 C 80.800 135.960,80.937 135.600,81.105 135.600 C 81.273 135.600,81.588 135.210,81.805 134.733 C 82.022 134.256,82.560 133.671,83.000 133.433 C 83.440 133.195,83.890 132.910,84.000 132.799 C 84.110 132.689,84.740 132.353,85.400 132.053 C 86.060 131.752,86.913 131.348,87.295 131.153 C 87.677 130.959,88.701 130.800,89.571 130.800 C 90.441 130.800,91.264 130.620,91.400 130.400 C 92.339 128.881,95.677 129.984,98.358 132.700 M24.000 154.400 C 24.000 154.840,23.820 155.200,23.600 155.200 C 23.380 155.200,23.200 155.560,23.200 156.000 C 23.200 156.440,23.020 156.800,22.800 156.800 C 22.580 156.800,22.400 157.162,22.400 157.605 C 22.400 158.048,22.241 158.723,22.047 159.105 C 21.852 159.487,21.471 160.340,21.200 161.000 C 20.929 161.660,20.548 162.513,20.353 162.895 C 20.159 163.277,20.000 164.031,20.000 164.571 C 20.000 165.111,19.820 165.664,19.600 165.800 C 19.380 165.936,19.200 166.577,19.200 167.224 C 19.200 167.871,19.020 168.400,18.800 168.400 C 18.580 168.400,18.400 169.109,18.400 169.976 C 18.400 170.843,18.220 171.664,18.000 171.800 C 17.780 171.936,17.600 173.027,17.600 174.224 C 17.600 175.421,17.420 176.400,17.200 176.400 C 16.967 176.400,16.800 177.725,16.800 179.576 C 16.800 181.323,16.620 182.864,16.400 183.000 C 15.212 183.735,16.079 203.584,17.300 203.597 C 17.465 203.599,17.600 203.960,17.600 204.400 C 17.600 204.840,17.780 205.200,18.000 205.200 C 18.220 205.200,18.400 205.406,18.400 205.657 C 18.400 205.908,18.940 206.629,19.600 207.260 C 20.260 207.891,20.800 208.553,20.800 208.732 C 20.800 209.436,30.605 219.613,33.039 221.435 C 33.894 222.076,34.981 222.960,35.453 223.400 C 37.867 225.649,39.261 226.800,39.573 226.800 C 39.763 226.800,40.838 227.700,41.961 228.800 C 43.085 229.900,44.111 230.800,44.242 230.800 C 44.372 230.800,44.983 231.340,45.600 232.000 C 46.217 232.660,46.892 233.200,47.101 233.200 C 47.310 233.200,48.003 233.697,48.641 234.304 C 49.278 234.912,50.430 235.848,51.200 236.385 C 51.970 236.923,52.891 237.686,53.247 238.081 C 53.603 238.476,54.053 238.800,54.247 238.800 C 54.441 238.801,55.123 239.251,55.762 239.800 C 56.401 240.350,57.042 240.800,57.187 240.800 C 57.331 240.800,57.798 241.120,58.225 241.511 C 58.651 241.902,59.630 242.658,60.400 243.192 C 61.170 243.725,62.091 244.486,62.447 244.881 C 62.803 245.276,63.299 245.600,63.551 245.600 C 63.802 245.600,64.572 246.140,65.263 246.800 C 65.954 247.460,66.722 248.000,66.971 248.000 C 67.220 248.000,67.683 248.360,68.000 248.800 C 68.317 249.240,68.857 249.600,69.200 249.600 C 69.543 249.600,70.083 249.960,70.400 250.400 C 70.717 250.840,71.162 251.200,71.388 251.201 C 71.615 251.201,72.430 251.741,73.200 252.400 C 73.970 253.059,74.810 253.599,75.067 253.599 C 75.323 253.600,75.593 253.746,75.667 253.925 C 75.882 254.449,81.147 258.000,81.710 258.000 C 81.992 258.000,82.483 258.360,82.800 258.800 C 83.117 259.240,83.657 259.600,84.000 259.600 C 84.343 259.600,84.883 259.960,85.200 260.400 C 85.517 260.840,86.057 261.200,86.400 261.200 C 86.743 261.200,87.283 261.560,87.600 262.000 C 87.917 262.440,88.457 262.800,88.800 262.800 C 89.143 262.800,89.683 263.160,90.000 263.600 C 90.317 264.040,90.805 264.400,91.084 264.400 C 91.553 264.400,92.530 265.079,93.816 266.300 C 94.106 266.575,94.586 266.800,94.883 266.800 C 95.180 266.800,95.683 267.160,96.000 267.600 C 96.317 268.040,96.814 268.400,97.105 268.400 C 97.396 268.400,98.020 268.760,98.492 269.200 C 98.964 269.640,99.587 270.000,99.875 270.000 C 100.164 270.000,100.400 270.180,100.400 270.400 C 100.400 270.620,100.678 270.800,101.017 270.800 C 101.356 270.800,102.020 271.160,102.492 271.600 C 102.964 272.040,103.587 272.400,103.875 272.400 C 104.164 272.400,104.400 272.547,104.400 272.726 C 104.400 272.906,105.480 273.569,106.800 274.200 C 108.120 274.831,109.200 275.494,109.200 275.674 C 109.200 275.853,109.470 276.000,109.800 276.000 C 110.130 276.000,110.400 276.180,110.400 276.400 C 110.400 276.620,110.760 276.800,111.200 276.800 C 111.640 276.800,112.000 276.980,112.000 277.200 C 112.000 277.420,112.270 277.600,112.600 277.600 C 112.930 277.600,113.200 277.780,113.200 278.000 C 113.200 278.220,113.470 278.400,113.800 278.400 C 114.130 278.400,114.400 278.580,114.400 278.800 C 114.400 279.020,114.760 279.200,115.200 279.200 C 115.640 279.200,116.000 279.380,116.000 279.600 C 116.000 279.820,116.278 280.000,116.617 280.000 C 116.956 280.000,117.620 280.360,118.092 280.800 C 118.564 281.240,119.187 281.600,119.475 281.600 C 119.764 281.600,120.000 281.780,120.000 282.000 C 120.000 282.220,120.360 282.400,120.800 282.400 C 121.240 282.400,121.600 282.559,121.600 282.753 C 121.600 282.948,121.915 283.207,122.300 283.329 C 123.047 283.566,125.267 284.846,125.600 285.232 C 125.710 285.360,126.385 285.719,127.100 286.030 C 127.815 286.341,128.400 286.731,128.400 286.898 C 128.400 287.064,128.760 287.200,129.200 287.200 C 129.640 287.200,130.000 287.380,130.000 287.600 C 130.000 287.820,130.345 288.000,130.767 288.000 C 131.188 288.000,131.593 288.158,131.667 288.351 C 131.846 288.823,137.421 291.600,138.190 291.600 C 138.526 291.600,138.800 291.780,138.800 292.000 C 138.800 292.220,139.160 292.400,139.600 292.400 C 140.040 292.400,140.400 292.580,140.400 292.800 C 140.400 293.020,140.760 293.200,141.200 293.200 C 141.640 293.200,142.000 293.380,142.000 293.600 C 142.000 293.820,142.270 294.000,142.600 294.000 C 142.930 294.000,143.200 294.180,143.200 294.400 C 143.200 294.620,143.560 294.800,144.000 294.800 C 144.440 294.800,144.800 294.980,144.800 295.200 C 144.800 295.420,145.160 295.600,145.600 295.600 C 146.040 295.600,146.400 295.780,146.400 296.000 C 146.400 296.220,146.760 296.400,147.200 296.400 C 147.640 296.400,148.000 296.580,148.000 296.800 C 148.000 297.020,148.360 297.200,148.800 297.200 C 149.240 297.200,149.600 297.380,149.600 297.600 C 149.600 297.820,149.960 298.000,150.400 298.000 C 150.840 298.000,151.200 298.180,151.200 298.400 C 151.200 298.620,151.560 298.800,152.000 298.800 C 152.440 298.800,152.800 298.980,152.800 299.200 C 152.800 299.420,153.149 299.600,153.576 299.600 C 154.003 299.600,154.464 299.780,154.600 300.000 C 154.736 300.220,155.287 300.400,155.824 300.400 C 156.361 300.400,156.800 300.580,156.800 300.800 C 156.800 301.020,157.160 301.200,157.600 301.200 C 158.040 301.200,158.400 301.336,158.400 301.502 C 158.400 301.669,158.985 302.040,159.700 302.329 C 160.415 302.617,161.313 303.021,161.695 303.226 C 162.077 303.432,162.662 303.600,162.995 303.600 C 163.328 303.600,163.600 303.780,163.600 304.000 C 163.600 304.220,163.949 304.400,164.376 304.400 C 164.803 304.400,165.264 304.580,165.400 304.800 C 165.536 305.020,166.087 305.200,166.624 305.200 C 167.161 305.200,167.600 305.380,167.600 305.600 C 167.600 305.820,167.949 306.000,168.376 306.000 C 168.803 306.000,169.264 306.180,169.400 306.400 C 169.536 306.620,169.976 306.800,170.378 306.800 C 170.780 306.800,171.624 307.069,172.254 307.398 C 172.884 307.726,173.794 307.996,174.276 307.998 C 174.758 307.999,175.264 308.180,175.400 308.400 C 175.536 308.620,176.087 308.800,176.624 308.800 C 177.161 308.800,177.600 308.980,177.600 309.200 C 177.600 309.420,178.140 309.600,178.800 309.600 C 179.460 309.600,180.000 309.780,180.000 310.000 C 180.000 310.220,180.540 310.400,181.200 310.400 C 181.860 310.400,182.400 310.580,182.400 310.800 C 182.400 311.020,182.929 311.200,183.576 311.200 C 184.223 311.200,184.864 311.380,185.000 311.600 C 185.136 311.820,185.867 312.000,186.624 312.000 C 187.381 312.000,188.000 312.180,188.000 312.400 C 188.000 312.620,188.720 312.800,189.600 312.800 C 190.480 312.800,191.200 312.980,191.200 313.200 C 191.200 313.420,192.010 313.600,193.000 313.600 C 193.990 313.600,194.800 313.780,194.800 314.000 C 194.800 314.220,195.779 314.400,196.976 314.400 C 198.173 314.400,199.264 314.580,199.400 314.800 C 199.557 315.055,204.930 315.200,214.200 315.200 C 223.470 315.200,228.843 315.055,229.000 314.800 C 229.136 314.580,230.846 314.400,232.800 314.400 C 234.754 314.400,236.464 314.220,236.600 314.000 C 236.736 313.780,237.996 313.600,239.400 313.600 C 240.804 313.600,242.064 313.420,242.200 313.200 C 242.336 312.980,243.326 312.800,244.400 312.800 C 245.474 312.800,246.464 312.620,246.600 312.400 C 246.736 312.180,247.636 312.000,248.600 312.000 C 249.564 312.000,250.464 311.820,250.600 311.600 C 250.736 311.380,251.647 311.200,252.624 311.200 C 253.601 311.200,254.400 311.020,254.400 310.800 C 254.400 310.580,255.030 310.400,255.800 310.400 C 256.570 310.400,257.200 310.220,257.200 310.000 C 257.200 309.780,257.920 309.600,258.800 309.600 C 259.680 309.600,260.400 309.420,260.400 309.200 C 260.400 308.980,260.737 308.800,261.149 308.800 C 261.561 308.800,263.316 308.424,265.049 307.963 C 266.782 307.503,268.697 307.033,269.305 306.917 C 269.913 306.802,270.508 306.549,270.629 306.354 C 270.749 306.159,271.199 306.000,271.629 306.000 C 272.059 306.000,272.723 305.841,273.105 305.647 C 273.487 305.452,274.340 305.071,275.000 304.800 C 275.660 304.529,276.513 304.148,276.895 303.953 C 277.277 303.759,277.952 303.600,278.395 303.600 C 278.838 303.600,279.200 303.453,279.200 303.272 C 279.200 303.092,280.100 302.700,281.200 302.400 C 282.300 302.100,283.200 301.708,283.200 301.528 C 283.200 301.347,283.472 301.200,283.805 301.200 C 284.138 301.200,284.768 301.020,285.205 300.800 C 285.642 300.580,286.358 300.220,286.795 300.000 C 287.232 299.780,287.862 299.600,288.195 299.600 C 288.528 299.600,288.800 299.420,288.800 299.200 C 288.800 298.980,289.160 298.800,289.600 298.800 C 290.040 298.800,290.401 298.665,290.403 298.500 C 290.407 298.094,292.386 297.200,293.280 297.200 C 293.676 297.200,294.000 297.020,294.000 296.800 C 294.000 296.580,294.360 296.400,294.800 296.400 C 295.240 296.400,295.600 296.220,295.600 296.000 C 295.600 295.780,295.960 295.600,296.400 295.600 C 296.840 295.600,297.200 295.420,297.200 295.200 C 297.200 294.980,297.560 294.800,298.000 294.800 C 298.440 294.800,298.800 294.620,298.800 294.400 C 298.800 294.180,299.160 294.000,299.600 294.000 C 300.040 294.000,300.400 293.820,300.400 293.600 C 300.400 293.380,300.760 293.200,301.200 293.200 C 301.640 293.200,302.000 293.020,302.000 292.800 C 302.000 292.580,302.360 292.400,302.800 292.400 C 303.240 292.400,303.600 292.220,303.600 292.000 C 303.600 291.780,303.839 291.600,304.131 291.600 C 304.422 291.600,306.164 290.790,308.000 289.800 C 309.836 288.810,311.488 288.000,311.669 288.000 C 311.851 288.000,312.000 287.820,312.000 287.600 C 312.000 287.380,312.360 287.200,312.800 287.200 C 313.240 287.200,313.600 287.020,313.600 286.800 C 313.600 286.580,313.945 286.400,314.367 286.400 C 314.788 286.400,315.193 286.265,315.267 286.100 C 315.434 285.724,317.564 284.425,318.500 284.129 C 318.885 284.007,319.200 283.748,319.200 283.553 C 319.200 283.359,319.560 283.200,320.000 283.200 C 320.440 283.200,320.800 283.020,320.800 282.800 C 320.800 282.580,320.993 282.400,321.228 282.400 C 321.463 282.400,322.441 281.860,323.400 281.200 C 324.359 280.540,325.337 280.000,325.572 280.000 C 325.807 280.000,326.000 279.820,326.000 279.600 C 326.000 279.380,326.320 279.200,326.712 279.200 C 327.103 279.200,327.683 278.840,328.000 278.400 C 328.317 277.960,328.897 277.600,329.288 277.600 C 329.680 277.600,330.000 277.420,330.000 277.200 C 330.000 276.980,330.320 276.800,330.712 276.800 C 331.103 276.800,331.683 276.440,332.000 276.000 C 332.317 275.560,332.852 275.187,333.188 275.171 C 333.525 275.155,334.340 274.797,335.000 274.375 C 335.660 273.954,336.470 273.487,336.800 273.337 C 337.130 273.188,338.152 272.556,339.072 271.933 C 339.992 271.310,340.937 270.800,341.172 270.800 C 341.407 270.800,341.600 270.642,341.600 270.449 C 341.600 270.255,342.140 269.873,342.800 269.600 C 343.460 269.327,344.000 268.945,344.000 268.751 C 344.000 268.558,344.320 268.400,344.712 268.400 C 345.103 268.400,345.683 268.040,346.000 267.600 C 346.317 267.160,346.897 266.800,347.288 266.800 C 347.680 266.800,348.000 266.620,348.000 266.400 C 348.000 266.180,348.236 266.000,348.525 266.000 C 348.813 266.000,349.436 265.640,349.908 265.200 C 350.380 264.760,351.004 264.400,351.295 264.400 C 351.586 264.400,352.083 264.040,352.400 263.600 C 352.717 263.160,353.297 262.800,353.688 262.800 C 354.080 262.800,354.400 262.650,354.400 262.468 C 354.400 262.285,354.895 261.881,355.500 261.570 C 356.105 261.260,356.891 260.689,357.247 260.303 C 357.603 259.916,358.098 259.600,358.347 259.600 C 358.596 259.600,358.800 259.441,358.800 259.246 C 358.800 259.051,359.475 258.574,360.300 258.186 C 361.125 257.799,361.890 257.365,362.000 257.222 C 362.110 257.079,362.830 256.529,363.600 256.000 C 364.370 255.471,365.090 254.931,365.200 254.800 C 365.310 254.669,366.030 254.127,366.800 253.596 C 367.570 253.065,368.677 252.129,369.260 251.515 C 369.844 250.902,370.457 250.400,370.623 250.400 C 370.968 250.400,381.600 239.696,381.600 239.348 C 381.600 239.223,382.140 238.617,382.800 238.000 C 383.460 237.383,384.000 236.657,384.000 236.386 C 384.000 236.116,384.316 235.603,384.703 235.247 C 385.089 234.891,385.660 234.105,385.970 233.500 C 386.281 232.895,386.685 232.400,386.868 232.400 C 387.050 232.400,387.200 232.040,387.200 231.600 C 387.200 231.160,387.380 230.800,387.600 230.800 C 387.820 230.800,388.000 230.440,388.000 230.000 C 388.000 229.560,388.180 229.200,388.400 229.200 C 388.620 229.200,388.800 228.855,388.800 228.433 C 388.800 228.012,388.941 227.607,389.113 227.533 C 389.702 227.283,391.600 220.748,391.600 218.972 C 391.600 217.998,391.780 217.200,392.000 217.200 C 392.251 217.200,392.400 214.667,392.400 210.400 C 392.400 206.133,392.251 203.600,392.000 203.600 C 391.780 203.600,391.589 202.835,391.576 201.900 C 391.547 199.833,390.661 194.997,390.018 193.400 C 389.841 192.960,389.102 190.710,388.376 188.400 C 387.649 186.090,386.908 184.029,386.728 183.820 C 386.547 183.611,386.400 183.026,386.400 182.520 C 386.400 182.014,386.220 181.600,386.000 181.600 C 385.780 181.600,385.600 181.060,385.600 180.400 C 385.600 179.740,385.420 179.200,385.200 179.200 C 384.980 179.200,384.800 178.761,384.800 178.224 C 384.800 177.687,384.620 177.136,384.400 177.000 C 384.180 176.864,384.000 176.313,384.000 175.776 C 384.000 175.239,383.820 174.800,383.600 174.800 C 383.380 174.800,383.200 174.260,383.200 173.600 C 383.200 172.667,383.022 172.400,382.400 172.400 C 381.778 172.400,381.600 172.667,381.600 173.600 C 381.600 174.260,381.420 174.800,381.200 174.800 C 380.980 174.800,380.800 175.329,380.800 175.976 C 380.800 176.623,380.620 177.264,380.400 177.400 C 380.180 177.536,380.000 177.997,380.000 178.424 C 380.000 178.851,379.820 179.200,379.600 179.200 C 379.380 179.200,379.200 179.560,379.200 180.000 C 379.200 180.440,379.050 180.800,378.868 180.800 C 378.685 180.800,378.280 181.295,377.968 181.900 C 377.655 182.505,377.070 183.360,376.666 183.800 C 376.262 184.240,375.660 185.120,375.327 185.756 C 374.994 186.392,373.316 188.282,371.599 189.956 C 366.623 194.805,362.370 198.800,362.182 198.800 C 361.962 198.800,360.575 199.934,359.368 201.100 C 358.856 201.595,358.320 202.000,358.179 202.000 C 358.037 202.000,357.417 202.540,356.800 203.200 C 356.183 203.860,355.463 204.400,355.200 204.400 C 354.937 204.400,354.217 204.940,353.600 205.600 C 352.983 206.260,352.231 206.800,351.928 206.800 C 351.625 206.800,351.117 207.160,350.800 207.600 C 350.483 208.040,350.066 208.400,349.873 208.400 C 349.680 208.400,348.004 209.390,346.148 210.600 C 344.291 211.810,342.638 212.800,342.475 212.800 C 342.311 212.800,341.917 213.160,341.600 213.600 C 341.283 214.040,340.703 214.400,340.312 214.400 C 339.920 214.400,339.600 214.580,339.600 214.800 C 339.600 215.020,339.364 215.200,339.075 215.200 C 338.787 215.200,338.164 215.560,337.692 216.000 C 337.220 216.440,336.556 216.800,336.217 216.800 C 335.878 216.800,335.600 216.980,335.600 217.200 C 335.600 217.420,335.322 217.600,334.983 217.600 C 334.644 217.600,333.980 217.960,333.508 218.400 C 333.036 218.840,332.413 219.200,332.125 219.200 C 331.836 219.200,331.600 219.380,331.600 219.600 C 331.600 219.820,331.240 220.000,330.800 220.000 C 330.360 220.000,330.000 220.180,330.000 220.400 C 330.000 220.620,329.640 220.800,329.200 220.800 C 328.760 220.800,328.400 220.980,328.400 221.200 C 328.400 221.420,328.130 221.600,327.800 221.600 C 327.470 221.600,327.200 221.780,327.200 222.000 C 327.200 222.220,326.840 222.400,326.400 222.400 C 325.960 222.400,325.600 222.580,325.600 222.800 C 325.600 223.020,325.240 223.200,324.800 223.200 C 324.360 223.200,324.000 223.336,324.000 223.502 C 324.000 223.669,323.505 224.021,322.900 224.286 C 317.996 226.431,316.709 227.013,314.606 228.036 C 313.289 228.676,311.984 229.200,311.706 229.200 C 311.428 229.200,311.200 229.380,311.200 229.600 C 311.200 229.820,310.851 230.000,310.424 230.000 C 309.997 230.000,309.536 230.180,309.400 230.400 C 309.264 230.620,308.803 230.800,308.376 230.800 C 307.949 230.800,307.600 230.980,307.600 231.200 C 307.600 231.420,307.240 231.600,306.800 231.600 C 306.360 231.600,306.000 231.780,306.000 232.000 C 306.000 232.220,305.460 232.400,304.800 232.400 C 304.140 232.400,303.600 232.580,303.600 232.800 C 303.600 233.020,303.240 233.200,302.800 233.200 C 302.360 233.200,302.000 233.380,302.000 233.600 C 302.000 233.820,301.460 234.000,300.800 234.000 C 300.140 234.000,299.600 234.180,299.600 234.400 C 299.600 234.620,299.150 234.800,298.600 234.800 C 298.050 234.800,297.600 234.980,297.600 235.200 C 297.600 235.420,297.150 235.600,296.600 235.600 C 296.050 235.600,295.600 235.780,295.600 236.000 C 295.600 236.220,295.161 236.400,294.624 236.400 C 294.087 236.400,293.536 236.580,293.400 236.800 C 293.264 237.020,292.713 237.200,292.176 237.200 C 291.639 237.200,291.200 237.380,291.200 237.600 C 291.200 237.820,290.660 238.000,290.000 238.000 C 289.340 238.000,288.800 238.180,288.800 238.400 C 288.800 238.620,288.260 238.800,287.600 238.800 C 286.940 238.800,286.400 238.980,286.400 239.200 C 286.400 239.420,285.871 239.600,285.224 239.600 C 284.577 239.600,283.936 239.780,283.800 240.000 C 283.664 240.220,282.933 240.400,282.176 240.400 C 281.419 240.400,280.800 240.560,280.800 240.756 C 280.800 240.952,280.215 241.216,279.500 241.342 C 275.290 242.084,272.829 242.637,272.566 242.901 C 272.401 243.065,271.577 243.200,270.733 243.200 C 269.890 243.200,269.200 243.380,269.200 243.600 C 269.200 243.820,268.401 244.000,267.424 244.000 C 266.447 244.000,265.536 244.180,265.400 244.400 C 265.264 244.620,264.364 244.800,263.400 244.800 C 262.436 244.800,261.536 244.980,261.400 245.200 C 261.264 245.420,260.274 245.600,259.200 245.600 C 258.126 245.600,257.136 245.780,257.000 246.000 C 256.864 246.220,255.604 246.400,254.200 246.400 C 252.796 246.400,251.536 246.580,251.400 246.800 C 251.264 247.020,249.734 247.200,248.000 247.200 C 246.266 247.200,244.736 247.380,244.600 247.600 C 244.442 247.855,239.004 248.000,229.600 248.000 C 220.196 248.000,214.758 247.855,214.600 247.600 C 214.464 247.380,212.844 247.200,211.000 247.200 C 209.156 247.200,207.536 247.020,207.400 246.800 C 207.264 246.580,206.004 246.400,204.600 246.400 C 203.196 246.400,201.936 246.220,201.800 246.000 C 201.664 245.780,200.573 245.600,199.376 245.600 C 198.179 245.600,197.200 245.420,197.200 245.200 C 197.200 244.980,196.311 244.800,195.224 244.800 C 194.137 244.800,193.136 244.620,193.000 244.400 C 192.864 244.180,191.964 244.000,191.000 244.000 C 190.036 244.000,189.136 243.820,189.000 243.600 C 188.864 243.380,188.073 243.200,187.243 243.200 C 186.413 243.200,185.599 243.065,185.435 242.900 C 185.139 242.601,180.934 241.752,177.700 241.337 C 176.765 241.217,176.000 240.958,176.000 240.760 C 176.000 240.562,175.471 240.400,174.824 240.400 C 174.177 240.400,173.536 240.220,173.400 240.000 C 173.264 239.780,172.623 239.600,171.976 239.600 C 171.329 239.600,170.800 239.420,170.800 239.200 C 170.800 238.980,170.170 238.800,169.400 238.800 C 168.630 238.800,168.000 238.620,168.000 238.400 C 168.000 238.180,167.370 238.000,166.600 238.000 C 165.830 238.000,165.200 237.820,165.200 237.600 C 165.200 237.380,164.660 237.200,164.000 237.200 C 163.340 237.200,162.800 237.020,162.800 236.800 C 162.800 236.580,162.260 236.400,161.600 236.400 C 160.940 236.400,160.400 236.220,160.400 236.000 C 160.400 235.780,159.860 235.600,159.200 235.600 C 158.540 235.600,158.000 235.420,158.000 235.200 C 158.000 234.980,157.561 234.800,157.024 234.800 C 156.487 234.800,155.936 234.620,155.800 234.400 C 155.664 234.180,155.113 234.000,154.576 234.000 C 154.039 234.000,153.600 233.820,153.600 233.600 C 153.600 233.380,153.060 233.200,152.400 233.200 C 151.740 233.200,151.200 233.020,151.200 232.800 C 151.200 232.580,150.761 232.400,150.224 232.400 C 149.687 232.400,149.136 232.220,149.000 232.000 C 148.864 231.780,148.403 231.600,147.976 231.600 C 147.549 231.600,147.200 231.420,147.200 231.200 C 147.200 230.980,146.660 230.800,146.000 230.800 C 145.340 230.800,144.800 230.620,144.800 230.400 C 144.800 230.180,144.451 230.000,144.024 230.000 C 143.597 230.000,143.136 229.820,143.000 229.600 C 142.864 229.380,142.313 229.200,141.776 229.200 C 141.239 229.200,140.800 229.020,140.800 228.800 C 140.800 228.580,140.528 228.400,140.195 228.400 C 139.862 228.400,139.277 228.235,138.895 228.033 C 137.538 227.315,134.403 226.000,134.050 226.000 C 133.853 226.000,133.176 225.731,132.546 225.402 C 131.916 225.074,131.085 224.804,130.700 224.802 C 130.315 224.801,130.000 224.620,130.000 224.400 C 130.000 224.180,129.640 224.000,129.200 224.000 C 128.760 224.000,128.400 223.820,128.400 223.600 C 128.400 223.380,127.860 223.200,127.200 223.200 C 126.540 223.200,126.000 223.020,126.000 222.800 C 126.000 222.580,125.640 222.400,125.200 222.400 C 124.760 222.400,124.400 222.220,124.400 222.000 C 124.400 221.780,124.130 221.600,123.800 221.600 C 123.470 221.600,123.200 221.420,123.200 221.200 C 123.200 220.980,122.840 220.800,122.400 220.800 C 121.960 220.800,121.600 220.620,121.600 220.400 C 121.600 220.180,121.355 220.000,121.056 220.000 C 120.531 220.000,118.016 218.838,113.000 216.279 C 111.680 215.605,109.520 214.503,108.200 213.829 C 106.880 213.156,105.710 212.506,105.600 212.385 C 105.490 212.264,103.600 211.283,101.400 210.205 C 99.200 209.127,97.340 208.100,97.267 207.922 C 97.193 207.745,96.788 207.600,96.367 207.600 C 95.945 207.600,95.600 207.420,95.600 207.200 C 95.600 206.980,95.240 206.800,94.800 206.800 C 94.360 206.800,94.000 206.620,94.000 206.400 C 94.000 206.180,93.706 206.000,93.347 206.000 C 92.988 206.000,92.403 205.671,92.047 205.270 C 91.691 204.868,90.815 204.284,90.100 203.972 C 89.385 203.660,88.800 203.269,88.800 203.102 C 88.800 202.936,88.564 202.800,88.275 202.800 C 87.987 202.800,87.364 202.440,86.892 202.000 C 86.420 201.560,85.838 201.200,85.600 201.200 C 85.362 201.200,84.780 200.840,84.308 200.400 C 83.836 199.960,83.213 199.600,82.925 199.600 C 82.636 199.600,82.400 199.420,82.400 199.200 C 82.400 198.980,82.122 198.800,81.783 198.800 C 81.444 198.800,80.780 198.440,80.308 198.000 C 79.836 197.560,79.213 197.200,78.925 197.200 C 78.636 197.200,78.400 197.042,78.400 196.849 C 78.400 196.655,77.860 196.273,77.200 196.000 C 76.540 195.727,76.000 195.345,76.000 195.151 C 76.000 194.958,75.764 194.800,75.475 194.800 C 75.187 194.800,74.564 194.440,74.092 194.000 C 73.620 193.560,73.068 193.200,72.866 193.200 C 72.663 193.200,72.274 192.930,72.000 192.600 C 71.726 192.270,71.204 192.000,70.839 192.000 C 70.475 192.000,69.917 191.640,69.600 191.200 C 69.283 190.760,68.838 190.400,68.612 190.399 C 68.385 190.399,67.570 189.859,66.800 189.200 C 66.030 188.541,65.215 188.001,64.988 188.001 C 64.762 188.000,64.317 187.640,64.000 187.200 C 63.683 186.760,63.143 186.400,62.800 186.400 C 62.457 186.400,61.917 186.040,61.600 185.600 C 61.283 185.160,60.820 184.800,60.571 184.800 C 60.322 184.800,59.554 184.260,58.863 183.600 C 58.172 182.940,57.514 182.400,57.400 182.400 C 57.286 182.400,56.628 181.860,55.937 181.200 C 55.246 180.540,54.504 180.000,54.288 180.000 C 54.071 180.000,53.603 179.676,53.247 179.281 C 52.891 178.886,51.970 178.125,51.200 177.592 C 49.449 176.379,49.000 176.023,47.799 174.900 C 47.270 174.405,46.636 174.000,46.392 174.000 C 46.148 174.000,45.071 173.100,44.000 172.000 C 42.929 170.900,41.948 170.000,41.821 170.000 C 41.694 170.000,39.911 168.335,37.859 166.300 C 35.808 164.265,32.480 161.043,30.465 159.140 C 28.449 157.236,26.800 155.468,26.800 155.211 C 26.800 154.470,25.735 153.600,24.829 153.600 C 24.267 153.600,24.000 153.857,24.000 154.400 " stroke="none" fill="#040404" fill-rule="evenodd"></path><path id="path1" d="" stroke="none" fill="#080404" fill-rule="evenodd"></path><path id="path2" d="" stroke="none" fill="#080404" fill-rule="evenodd"></path><path id="path3" d="" stroke="none" fill="#080404" fill-rule="evenodd"></path><path id="path4" d="" stroke="none" fill="#080404" fill-rule="evenodd"></path></g></svg>