<?xml version="1.0" standalone="no"?>
<!DOCTYPE svg PUBLIC "-//W3C//DTD SVG 20010904//EN"
 "http://www.w3.org/TR/2001/REC-SVG-20010904/DTD/svg10.dtd">
<svg version="1.0" xmlns="http://www.w3.org/2000/svg"
 width="400.000000pt" height="400.000000pt" viewBox="0 0 400.000000 400.000000"
 preserveAspectRatio="xMidYMid meet">

<g transform="translate(0.000000,400.000000) scale(0.100000,-0.100000)"
fill="#000000" stroke="none">
<path d="M1875 3994 c-768 -58 -1407 -511 -1712 -1214 -107 -246 -157 -494
-157 -780 0 -169 12 -280 45 -431 164 -754 772 -1360 1523 -1519 166 -35 249
-43 426 -43 177 0 260 8 426 43 548 116 1044 484 1317 978 170 306 250 615
250 967 1 292 -48 535 -158 790 -206 476 -574 844 -1050 1050 -162 70 -330
117 -520 144 -80 11 -316 21 -390 15z m306 -55 c473 -48 875 -240 1204 -573
286 -290 467 -642 534 -1037 136 -797 -227 -1583 -924 -2004 -175 -106 -409
-196 -610 -235 -651 -126 -1299 70 -1761 534 -452 453 -650 1076 -543 1705 94
553 427 1043 911 1338 352 214 786 314 1189 272z"/>
<path d="M1957 3668 c-3 -95 -5 -173 -4 -174 1 -1 58 -4 127 -5 l125 -4 0 30
0 30 -92 3 -93 3 0 144 0 145 -28 0 -29 0 -6 -172z"/>
<path d="M1666 3815 c-62 -13 -86 -33 -86 -70 0 -36 39 -234 50 -255 15 -28
49 -34 129 -20 50 8 75 18 91 36 l23 24 -17 102 c-36 213 -40 216 -190 183z
m104 -70 c12 -33 35 -193 29 -200 -12 -11 -104 -23 -113 -15 -13 13 -46 203
-37 213 6 6 62 20 104 26 4 1 12 -10 17 -24z"/>
<path d="M2356 3758 c-58 -210 -76 -281 -72 -285 12 -13 191 -54 212 -49 31 8
42 31 76 161 33 130 34 137 8 160 -16 15 -173 65 -202 65 -4 0 -14 -24 -22
-52z m174 -71 c0 -28 -41 -180 -51 -191 -12 -14 -119 12 -119 29 0 17 46 191
54 203 3 6 29 3 61 -6 43 -12 55 -20 55 -35z"/>
<path d="M1231 3681 c-9 -6 -16 -31 -19 -63 -6 -80 -10 -82 -73 -44 -41 25
-60 31 -72 24 -31 -17 -17 -37 58 -79 73 -42 77 -46 117 -125 42 -82 51 -88
85 -61 10 7 3 27 -28 85 -40 76 -41 76 -37 170 3 95 -2 111 -31 93z"/>
<path d="M2888 3573 c-25 -28 -48 -80 -48 -106 0 -26 25 -52 83 -86 42 -25 46
-47 18 -82 l-19 -24 -37 20 c-20 10 -45 29 -55 42 -18 23 -64 31 -74 14 -15
-23 17 -60 84 -101 87 -53 109 -49 158 25 49 72 43 98 -35 153 -58 40 -61 45
-51 67 6 13 16 26 23 29 15 5 105 -49 105 -63 0 -14 61 -20 67 -5 9 23 -18 55
-79 95 -67 43 -115 50 -140 22z"/>
<path d="M813 3423 c-56 -43 -102 -81 -102 -84 -1 -4 8 -17 18 -30 l19 -24 24
20 c58 52 49 56 145 -65 86 -109 105 -122 126 -89 8 13 -7 39 -76 126 -48 61
-87 113 -87 115 0 3 18 18 40 33 38 26 39 28 23 51 -8 13 -18 24 -22 24 -4 0
-53 -35 -108 -77z"/>
<path d="M1780 3386 c-573 -90 -1031 -501 -1171 -1052 -69 -272 -61 -530 23
-794 227 -711 975 -1126 1700 -944 462 117 839 459 996 905 60 170 77 275 77
474 0 249 -33 397 -136 614 -74 156 -149 262 -279 391 -205 205 -431 329 -713
391 -119 26 -376 34 -497 15z m468 -41 c555 -108 980 -528 1104 -1093 31 -140
31 -404 0 -549 -63 -290 -189 -520 -397 -722 -186 -181 -393 -297 -637 -356
-324 -78 -653 -42 -951 106 -144 72 -238 140 -363 264 -205 204 -324 426 -386
719 -16 77 -21 137 -21 256 -1 167 14 268 59 419 149 493 593 881 1099 960 39
6 81 13 95 15 53 9 319 -3 398 -19z"/>
<path d="M1884 3335 c-4 -9 -2 -21 4 -27 15 -15 44 -1 40 19 -4 23 -36 29 -44
8z"/>
<path d="M1970 3330 c0 -16 7 -20 30 -20 23 0 30 4 30 20 0 16 -7 20 -30 20
-23 0 -30 -4 -30 -20z"/>
<path d="M2074 3335 c-7 -18 3 -35 20 -35 14 0 28 35 18 44 -10 11 -33 6 -38
-9z"/>
<path d="M1800 3320 c0 -13 7 -20 20 -20 13 0 20 7 20 20 0 13 -7 20 -20 20
-13 0 -20 -7 -20 -20z"/>
<path d="M2162 3318 c5 -34 38 -37 38 -4 0 20 -5 26 -21 26 -15 0 -20 -5 -17
-22z"/>
<path d="M1721 3321 c-14 -9 -9 -41 6 -41 19 1 33 18 27 33 -7 19 -13 21 -33
8z"/>
<path d="M2240 3300 c0 -23 35 -28 43 -6 7 18 -1 26 -25 26 -11 0 -18 -7 -18
-20z"/>
<path d="M1630 3292 c0 -24 8 -32 26 -25 22 8 17 43 -6 43 -13 0 -20 -7 -20
-18z"/>
<path d="M2326 3284 c-9 -24 -8 -26 16 -22 29 4 38 38 10 38 -11 0 -23 -7 -26
-16z"/>
<path d="M1557 3282 c-12 -2 -16 -9 -13 -19 3 -8 6 -17 6 -19 0 -2 9 -4 20 -4
13 0 20 7 20 19 0 23 -8 29 -33 23z"/>
<path d="M2407 3261 c-5 -20 17 -36 34 -25 14 9 10 31 -7 38 -21 8 -21 8 -27
-13z"/>
<path d="M1472 3252 c-17 -12 -4 -44 17 -40 17 4 22 39 6 45 -5 1 -16 -1 -23
-5z"/>
<path d="M2486 3234 c-4 -10 -1 -21 6 -26 19 -11 33 -4 33 18 0 24 -30 30 -39
8z"/>
<path d="M1397 3218 c-15 -11 -16 -16 -5 -31 11 -15 16 -16 31 -5 15 11 16 16
5 31 -11 15 -16 16 -31 5z"/>
<path d="M2566 3195 c-3 -8 3 -19 13 -25 15 -7 20 -6 25 6 3 9 4 20 0 25 -8
14 -31 11 -38 -6z"/>
<path d="M1321 3181 c-17 -11 -7 -41 13 -41 21 0 27 15 13 33 -8 11 -17 14
-26 8z"/>
<path d="M2646 3164 c-9 -24 -7 -31 9 -38 9 -3 19 3 25 14 8 15 6 21 -9 29
-15 8 -20 7 -25 -5z"/>
<path d="M1240 3130 c-13 -8 -13 -11 2 -26 14 -14 20 -15 33 -4 12 10 13 16 4
26 -13 16 -19 17 -39 4z"/>
<path d="M2716 3114 c-7 -19 1 -34 19 -34 18 0 28 32 13 42 -19 11 -25 10 -32
-8z"/>
<path d="M1165 3080 c-4 -6 -1 -17 5 -25 9 -11 17 -12 32 -4 15 8 17 13 7 25
-14 16 -35 18 -44 4z"/>
<path d="M2786 3064 c-7 -19 1 -34 19 -34 18 0 28 32 13 42 -19 11 -25 10 -32
-8z"/>
<path d="M1101 3026 c-17 -20 13 -43 34 -26 12 10 13 16 4 26 -6 8 -15 14 -19
14 -4 0 -13 -6 -19 -14z"/>
<path d="M2850 3010 c-8 -15 -6 -21 9 -30 16 -8 22 -7 30 8 7 14 5 21 -9 30
-16 10 -21 9 -30 -8z"/>
<path d="M1262 2987 c-18 -21 -31 -700 -16 -777 l9 -45 720 0 720 0 3 30 c1
17 7 39 13 50 6 13 8 72 4 155 -3 74 -8 236 -11 360 -3 160 -8 226 -17 232 -7
4 -328 8 -713 8 -566 0 -704 -3 -712 -13z m1343 -47 c6 -9 7 -103 5 -492 l0
-88 -635 0 -635 0 0 289 c0 222 3 291 13 294 26 11 1246 7 1252 -3z m-180
-617 c21 -51 54 -155 47 -149 -4 4 -18 40 -32 79 l-25 72 -439 0 -439 0 -25
-72 c-14 -40 -27 -71 -29 -69 -3 2 8 38 23 80 l27 76 442 0 c412 0 443 -1 450
-17z m-685 -73 c0 -15 -7 -20 -25 -20 -24 0 -34 18 -18 33 15 15 43 7 43 -13z
m520 0 c0 -15 -7 -20 -25 -20 -18 0 -25 5 -25 20 0 15 7 20 25 20 18 0 25 -5
25 -20z m-613 -26 c3 -8 -1 -23 -10 -31 -21 -21 -47 -9 -47 22 0 20 5 25 25
25 14 0 28 -7 32 -16z m718 -8 c0 -30 -31 -44 -51 -24 -24 24 -11 50 23 46 20
-2 28 -9 28 -22z"/>
<path d="M1355 2917 c-3 -7 -4 -131 -3 -277 l3 -265 620 0 620 0 3 278 2 277
-620 0 c-491 0 -622 -3 -625 -13z m775 -122 c0 -4 -7 -20 -16 -37 -31 -60 -9
-205 36 -233 31 -19 -4 -25 -150 -25 l-159 0 27 52 c21 41 27 66 27 118 0 36
-4 80 -9 98 l-8 32 126 0 c69 0 126 -2 126 -5z m-451 -41 c25 -21 31 -33 31
-67 0 -124 -170 -133 -187 -10 -5 38 -2 45 27 73 41 39 86 40 129 4z m722 -3
c63 -63 20 -161 -71 -161 -49 0 -90 44 -90 97 0 49 45 93 95 93 27 0 44 -8 66
-29z m187 -313 l-3 -53 -610 0 -610 0 -3 39 c-6 71 -56 66 618 66 l611 0 -3
-52z"/>
<path d="M1040 2976 c-10 -13 -10 -19 0 -32 12 -14 15 -14 29 0 14 15 14 17 0
32 -14 14 -17 14 -29 0z"/>
<path d="M2916 2953 c-4 -9 -1 -23 7 -30 12 -12 16 -12 27 1 10 13 10 19 0 31
-16 19 -26 19 -34 -2z"/>
<path d="M980 2916 c-10 -13 -10 -19 0 -32 12 -14 15 -14 29 0 14 15 14 17 0
32 -14 14 -17 14 -29 0z"/>
<path d="M2980 2896 c-10 -13 -10 -19 0 -32 12 -14 15 -14 29 0 14 15 14 17 0
32 -14 14 -17 14 -29 0z"/>
<path d="M921 2846 c-17 -20 13 -43 34 -26 12 10 13 16 4 26 -6 8 -15 14 -19
14 -4 0 -13 -6 -19 -14z"/>
<path d="M3031 2826 c-9 -10 -8 -16 4 -26 19 -16 41 1 32 24 -8 20 -21 20 -36
2z"/>
<path d="M867 2776 c-8 -20 20 -43 35 -28 14 14 3 42 -16 42 -7 0 -16 -6 -19
-14z"/>
<path d="M3081 2756 c-9 -10 -8 -16 4 -26 19 -16 41 1 32 24 -8 20 -21 20 -36
2z"/>
<path d="M821 2706 c-17 -20 13 -43 34 -26 12 10 13 16 4 26 -6 8 -15 14 -19
14 -4 0 -13 -6 -19 -14z"/>
<path d="M3132 2692 c-12 -8 -7 -42 7 -42 17 1 31 18 25 33 -7 19 -13 20 -32
9z"/>
<path d="M779 2633 c-11 -13 -10 -17 6 -29 15 -11 20 -11 27 -1 20 31 -10 59
-33 30z"/>
<path d="M3175 2616 c-18 -13 -18 -16 -5 -30 22 -22 47 -5 34 24 -8 19 -11 19
-29 6z"/>
<path d="M736 2554 c-4 -10 -1 -21 6 -26 19 -11 33 -4 33 18 0 24 -30 30 -39
8z"/>
<path d="M3211 2541 c-17 -11 -7 -41 13 -41 19 0 28 14 20 34 -7 18 -13 19
-33 7z"/>
<path d="M706 2473 c-6 -15 8 -32 25 -33 14 0 19 34 7 42 -19 11 -25 10 -32
-9z"/>
<path d="M3242 2462 c-15 -10 -5 -42 13 -42 18 0 26 15 19 34 -7 18 -13 19
-32 8z"/>
<path d="M676 2393 c-6 -15 8 -32 27 -33 15 0 20 32 6 41 -20 13 -26 11 -33
-8z"/>
<path d="M3273 2383 c-20 -8 -16 -43 5 -43 25 0 31 7 25 31 -5 20 -9 21 -30
12z"/>
<path d="M656 2322 c-14 -14 -5 -42 14 -42 11 0 20 2 20 4 0 2 3 11 6 19 5 14
-29 31 -40 19z"/>
<path d="M3280 2291 c0 -25 13 -38 31 -34 13 4 18 11 15 20 -3 8 -6 17 -6 19
0 2 -9 4 -20 4 -11 0 -20 -4 -20 -9z"/>
<path d="M636 2224 c-9 -23 -8 -24 19 -24 18 0 25 5 25 20 0 24 -35 28 -44 4z"/>
<path d="M3307 2213 c-15 -15 -7 -43 13 -43 15 0 20 7 20 25 0 24 -18 34 -33
18z"/>
<path d="M1065 2196 c-36 -16 -55 -52 -55 -106 0 -22 -4 -40 -10 -40 -15 0
-40 -56 -40 -90 0 -38 24 -86 49 -100 35 -18 80 -12 107 15 14 14 28 25 32 25
9 0 624 -248 630 -255 6 -5 23 2 -337 -144 -151 -61 -279 -111 -286 -111 -6 0
-17 11 -23 26 -16 33 -72 57 -105 45 -67 -26 -90 -123 -42 -179 14 -17 24 -38
23 -49 -3 -41 3 -63 28 -92 51 -61 143 -29 158 54 4 18 4 39 1 47 -5 11 84 51
386 172 l391 157 389 -157 389 -157 0 -43 c0 -92 92 -139 153 -78 26 26 45 84
33 103 -4 5 5 22 18 36 53 57 29 159 -42 186 -31 12 -83 -11 -101 -44 -8 -15
-18 -27 -23 -27 -5 0 -138 52 -296 116 -158 64 -298 121 -312 126 -20 8 -22
11 -10 18 30 16 617 250 628 250 6 0 15 -6 19 -14 12 -20 48 -36 81 -36 76 0
113 128 55 192 -10 11 -16 31 -15 44 5 37 -27 94 -63 111 -29 14 -35 14 -68
-2 -43 -20 -61 -60 -55 -119 l5 -45 -316 -127 c-174 -70 -351 -141 -394 -157
l-78 -30 -393 158 -393 158 9 37 c12 48 -12 104 -53 125 -34 18 -36 18 -74 1z"/>
<path d="M626 2152 c-14 -13 -5 -42 13 -42 26 0 35 37 10 43 -10 3 -20 2 -23
-1z"/>
<path d="M3310 2110 c0 -13 7 -20 20 -20 13 0 20 7 20 20 0 13 -7 20 -20 20
-13 0 -20 -7 -20 -20z"/>
<path d="M617 2063 c-16 -15 -6 -33 18 -33 18 0 25 5 25 20 0 20 -28 28 -43
13z"/>
<path d="M3320 2025 c0 -18 5 -25 20 -25 15 0 20 7 20 25 0 18 -5 25 -20 25
-15 0 -20 -7 -20 -25z"/>
<path d="M610 1959 c0 -15 5 -20 22 -17 34 5 37 38 4 38 -20 0 -26 -5 -26 -21z"/>
<path d="M3320 1940 c0 -13 7 -20 20 -20 13 0 20 7 20 20 0 13 -7 20 -20 20
-13 0 -20 -7 -20 -20z"/>
<path d="M620 1880 c0 -13 7 -20 20 -20 13 0 20 7 20 20 0 13 -7 20 -20 20
-13 0 -20 -7 -20 -20z"/>
<path d="M3310 1850 c0 -13 7 -20 19 -20 10 0 21 9 24 20 4 16 0 20 -19 20
-17 0 -24 -6 -24 -20z"/>
<path d="M624 1794 c3 -9 6 -18 6 -20 0 -2 9 -4 20 -4 13 0 20 7 20 20 0 15
-7 20 -26 20 -20 0 -25 -4 -20 -16z"/>
<path d="M3300 1770 c0 -23 35 -28 43 -6 7 18 -1 26 -25 26 -11 0 -18 -7 -18
-20z"/>
<path d="M2502 1728 c-7 -7 -12 -22 -12 -33 0 -13 -10 -26 -25 -33 -51 -23
-41 -95 16 -107 40 -9 84 21 84 56 0 19 -5 24 -24 24 -13 0 -27 -7 -29 -15 -4
-13 -3 -13 11 -2 23 19 40 6 26 -19 -13 -26 -62 -23 -67 4 -6 28 34 65 62 60
33 -7 43 15 11 23 -14 3 -25 10 -25 14 0 16 30 32 47 25 16 -7 15 -9 -7 -15
-22 -6 -23 -8 -7 -15 24 -10 51 13 36 31 -14 17 -81 18 -97 2z"/>
<path d="M640 1705 c0 -27 1 -28 24 -19 24 9 20 44 -4 44 -15 0 -20 -7 -20
-25z"/>
<path d="M815 1700 c-10 -11 -15 -23 -12 -27 4 -3 7 -1 7 5 0 16 36 33 54 26
14 -5 12 -10 -8 -35 -14 -16 -27 -38 -31 -48 -4 -14 -14 -19 -33 -18 -18 1
-27 -3 -27 -13 0 -23 121 -27 146 -4 21 19 27 88 8 99 -6 4 -8 13 -6 19 4 9
-8 13 -37 14 -32 2 -48 -3 -61 -18z m74 -96 c-6 -8 -19 -14 -28 -13 -12 0 -11
4 7 16 21 15 33 41 12 28 -13 -8 -13 2 3 28 12 21 12 21 15 -11 2 -18 -2 -40
-9 -48z m-89 -14 c0 -5 -4 -10 -10 -10 -5 0 -10 5 -10 10 0 6 5 10 10 10 6 0
10 -4 10 -10z"/>
<path d="M2973 1705 c-3 -9 -3 -18 0 -22 10 -10 37 6 37 22 0 20 -29 20 -37 0z"/>
<path d="M1311 1696 c-71 -39 -65 -155 7 -130 29 10 72 67 72 96 0 30 -30 35
-52 9 -20 -25 -24 -61 -7 -61 5 0 8 4 5 9 -8 13 11 61 24 61 19 0 10 -49 -13
-76 -28 -32 -47 -25 -47 17 0 20 10 40 29 60 31 30 23 37 -18 15z"/>
<path d="M3286 1694 c-8 -20 1 -34 20 -34 20 0 30 30 13 41 -20 12 -26 11 -33
-7z"/>
<path d="M986 1685 c-3 -9 0 -15 9 -15 8 0 15 7 15 15 0 8 -4 15 -9 15 -5 0
-11 -7 -15 -15z"/>
<path d="M1415 1659 c-31 -46 -39 -75 -23 -85 5 -3 16 0 24 7 9 8 18 9 22 3
11 -15 69 -14 82 1 8 9 8 15 2 15 -6 0 -2 18 9 40 10 21 19 44 19 50 0 18 -16
11 -30 -15 -7 -14 -21 -25 -30 -25 -9 0 -27 -11 -40 -25 -30 -32 -36 -26 -15
15 28 54 13 69 -20 19z m75 -44 c-7 -9 -15 -13 -17 -11 -7 7 7 26 19 26 6 0 6
-6 -2 -15z"/>
<path d="M1093 1643 c-46 -60 -25 -96 31 -52 19 15 26 17 26 6 0 -7 -3 -17 -7
-21 -5 -4 -9 -12 -9 -17 -1 -5 -2 -13 -3 -19 0 -5 -8 -10 -17 -10 -14 0 -15 2
-3 17 12 14 12 16 -1 11 -8 -2 -16 -12 -18 -21 -6 -31 32 -17 83 29 28 25 44
43 38 39 -9 -4 -11 2 -7 25 4 19 2 30 -5 30 -6 0 -11 -12 -11 -27 0 -16 -5
-35 -11 -43 -7 -11 -8 -5 -3 23 7 44 0 46 -38 10 -29 -27 -41 -17 -12 11 10
11 12 21 6 32 -7 13 -14 10 -39 -23z"/>
<path d="M2796 1634 c-40 -47 -59 -52 -36 -9 17 31 6 44 -23 26 -15 -10 -22
-10 -25 -2 -5 16 -27 14 -42 -4 -11 -13 -14 -13 -27 2 -13 17 -15 16 -35 -9
-25 -32 -33 -78 -13 -78 8 0 23 14 35 30 26 36 47 41 24 5 -26 -40 -7 -42 33
-4 35 33 36 31 16 -18 -7 -19 32 -16 47 3 8 8 22 20 33 26 18 9 18 8 -3 -23
-13 -19 -32 -44 -42 -55 -13 -14 -16 -24 -9 -28 19 -12 48 13 80 68 30 53 51
77 51 57 0 -5 -4 -13 -10 -16 -15 -9 -12 -45 4 -45 7 0 25 9 40 21 l26 20 0
-20 c0 -32 26 -25 69 19 46 48 61 52 30 9 -16 -23 -19 -33 -10 -42 9 -9 19 -8
41 5 24 14 29 14 34 2 11 -28 96 -3 96 28 0 6 -8 4 -18 -5 -10 -10 -25 -17
-33 -17 -8 0 1 12 19 26 17 14 32 32 32 40 0 26 -46 15 -89 -23 l-43 -37 16
32 c20 39 20 42 -3 42 -11 0 -21 5 -23 12 -6 17 -28 0 -28 -21 0 -10 -12 -28
-27 -42 -26 -24 -27 -23 -7 26 13 31 -25 27 -56 -7 -29 -30 -32 -27 -14 17 7
18 -26 21 -43 4 -8 -8 -11 -6 -10 6 3 33 -18 25 -57 -21z m364 2 c0 -3 -4 -8
-10 -11 -5 -3 -10 -1 -10 4 0 6 5 11 10 11 6 0 10 -2 10 -4z"/>
<path d="M800 1640 c6 -11 13 -20 16 -20 2 0 0 9 -6 20 -6 11 -13 20 -16 20
-2 0 0 -9 6 -20z"/>
<path d="M1011 1637 c-14 -36 -34 -46 -25 -13 7 30 -6 34 -29 8 -16 -17 -18
-45 -4 -59 4 -3 23 9 42 27 36 35 44 35 23 0 -7 -10 -9 -23 -5 -27 10 -10 43
12 39 26 -1 7 2 21 8 31 7 12 7 20 1 20 -5 0 -16 3 -25 6 -11 4 -19 -2 -25
-19z"/>
<path d="M667 1643 c-4 -3 -7 -15 -7 -25 0 -28 34 -19 38 10 3 21 -16 31 -31
15z"/>
<path d="M3270 1620 c0 -5 -3 -16 -6 -25 -5 -13 -2 -16 17 -13 30 4 37 34 9
41 -11 3 -20 1 -20 -3z"/>
<path d="M692 1562 c-15 -10 -5 -42 13 -42 18 0 26 15 19 34 -7 18 -13 19 -32
8z"/>
<path d="M3236 1525 c-3 -8 3 -19 13 -24 21 -12 31 -5 31 21 0 22 -35 25 -44
3z"/>
<path d="M722 1482 c-15 -10 -5 -42 13 -42 18 0 26 15 19 34 -7 18 -13 19 -32
8z"/>
<path d="M3206 1445 c-3 -8 3 -19 13 -25 18 -9 31 3 31 31 0 15 -37 10 -44 -6z"/>
<path d="M753 1402 c-20 -12 7 -45 30 -37 13 6 14 11 6 26 -11 21 -18 23 -36
11z"/>
<path d="M1942 1348 c-10 -29 -27 -77 -37 -105 l-19 -53 -60 0 c-34 0 -85 -3
-113 -6 l-53 -7 89 -69 89 -69 -29 -96 c-16 -53 -29 -102 -29 -109 0 -7 39 14
87 47 48 32 92 59 98 59 6 0 50 -27 98 -60 48 -33 87 -55 87 -48 0 7 -7 36
-15 63 -9 28 -22 71 -30 97 l-13 46 89 70 89 69 -62 7 c-33 3 -84 6 -113 6
l-52 0 -38 105 c-20 58 -39 105 -40 105 -2 0 -12 -24 -23 -52z"/>
<path d="M3171 1371 c-10 -18 2 -31 29 -31 18 0 18 30 0 40 -15 8 -21 6 -29
-9z"/>
<path d="M798 1326 c-14 -11 -15 -16 -5 -30 10 -14 15 -15 30 -4 15 11 16 16
5 30 -11 14 -16 15 -30 4z"/>
<path d="M3127 1296 c-3 -8 1 -20 10 -27 13 -11 17 -10 29 6 11 15 11 20 1 27
-19 12 -34 10 -40 -6z"/>
<path d="M842 1252 c-12 -8 -7 -42 7 -42 17 1 31 18 25 33 -7 19 -13 20 -32 9z"/>
<path d="M3083 1224 c-5 -14 11 -33 28 -34 14 0 19 34 7 42 -19 12 -28 10 -35
-8z"/>
<path d="M886 1181 c-7 -10 3 -41 13 -41 17 1 31 18 25 33 -7 18 -29 23 -38 8z"/>
<path d="M3033 1154 c-9 -23 19 -37 37 -18 13 13 13 16 0 24 -21 14 -30 12
-37 -6z"/>
<path d="M934 1109 c-3 -6 0 -17 8 -25 13 -13 16 -13 27 0 7 8 10 20 6 26 -8
13 -32 13 -41 -1z"/>
<path d="M2980 1096 c-10 -13 -10 -19 0 -32 12 -14 15 -14 29 0 14 15 14 17 0
32 -14 14 -17 14 -29 0z"/>
<path d="M994 1049 c-10 -17 23 -46 37 -32 7 7 9 19 6 27 -7 18 -33 21 -43 5z"/>
<path d="M2921 1026 c-9 -10 -8 -16 4 -26 21 -17 51 6 34 26 -6 8 -15 14 -19
14 -4 0 -13 -6 -19 -14z"/>
<path d="M1061 986 c-9 -10 -8 -16 4 -26 19 -16 41 1 32 24 -8 20 -21 20 -36
2z"/>
<path d="M2860 976 c-10 -13 -10 -19 0 -32 12 -14 15 -14 29 0 14 15 14 17 0
32 -14 14 -17 14 -29 0z"/>
<path d="M1130 936 c-10 -13 -10 -19 0 -32 12 -14 15 -14 29 0 14 15 14 17 0
32 -14 14 -17 14 -29 0z"/>
<path d="M2791 916 c-17 -20 13 -43 34 -26 12 10 13 16 4 26 -6 8 -15 14 -19
14 -4 0 -13 -6 -19 -14z"/>
<path d="M1192 880 c-10 -16 -9 -21 8 -30 15 -8 21 -6 30 9 8 16 7 22 -8 30
-14 7 -21 5 -30 -9z"/>
<path d="M2723 864 c-9 -23 13 -40 32 -24 12 10 13 16 4 26 -15 18 -28 18 -36
-2z"/>
<path d="M1266 834 c-7 -19 1 -34 19 -34 18 0 26 25 12 39 -15 15 -24 14 -31
-5z"/>
<path d="M2656 827 c-14 -10 -15 -15 -4 -30 11 -15 16 -16 30 -5 14 11 15 16
4 30 -11 14 -16 15 -30 5z"/>
<path d="M1341 792 c-9 -18 -8 -23 8 -31 25 -14 38 16 17 37 -12 12 -15 12
-25 -6z"/>
<path d="M2576 781 c-7 -11 3 -41 13 -41 14 0 29 23 24 36 -6 16 -29 19 -37 5z"/>
<path d="M1416 753 c-4 -8 -4 -19 0 -24 5 -9 34 -13 34 -5 0 2 3 11 6 19 3 9
-2 16 -15 20 -12 3 -22 -1 -25 -10z"/>
<path d="M2502 752 c-15 -10 -5 -42 13 -42 18 0 26 15 19 34 -7 18 -13 19 -32
8z"/>
<path d="M1497 723 c-13 -12 -7 -31 12 -36 13 -3 21 1 24 14 7 26 -18 41 -36
22z"/>
<path d="M2427 722 c-12 -2 -16 -9 -13 -19 3 -8 6 -17 6 -19 0 -8 29 -4 35 6
10 16 -8 36 -28 32z"/>
<path d="M1576 693 c-4 -8 -4 -19 0 -24 5 -9 34 -13 34 -5 0 2 3 11 6 19 3 9
-2 16 -15 20 -12 3 -22 -1 -25 -10z"/>
<path d="M2342 692 c-12 -8 -7 -42 7 -42 17 1 31 18 25 33 -7 19 -13 20 -32 9z"/>
<path d="M1656 664 c-9 -23 -8 -24 19 -24 18 0 25 5 25 20 0 24 -35 28 -44 4z"/>
<path d="M2257 673 c-10 -10 -8 -43 2 -43 24 0 38 13 34 31 -5 19 -23 25 -36
12z"/>
<path d="M1740 645 c0 -18 5 -25 20 -25 24 0 28 35 4 44 -23 9 -24 8 -24 -19z"/>
<path d="M1824 645 c-8 -20 4 -35 27 -35 12 0 19 7 19 19 0 23 -39 36 -46 16z"/>
<path d="M2164 644 c3 -9 6 -18 6 -20 0 -2 9 -4 20 -4 13 0 20 7 20 20 0 15
-7 20 -26 20 -20 0 -25 -4 -20 -16z"/>
<path d="M1912 628 c5 -34 38 -37 38 -4 0 20 -5 26 -21 26 -15 0 -20 -5 -17
-22z"/>
<path d="M1998 645 c-12 -13 5 -45 24 -45 14 0 19 6 16 22 -3 22 -27 35 -40
23z"/>
<path d="M2080 630 c0 -13 7 -20 20 -20 13 0 20 7 20 20 0 13 -7 20 -20 20
-13 0 -20 -7 -20 -20z"/>
<path d="M3126 3277 c-64 -69 -116 -130 -116 -137 0 -7 8 -19 18 -26 15 -11
23 -6 69 39 l53 51 44 -43 45 -44 -50 -56 -50 -56 23 -19 23 -18 117 123 c65
68 117 130 115 138 -1 8 -10 19 -20 25 -15 9 -25 4 -63 -36 -25 -27 -48 -48
-52 -48 -4 0 -27 18 -52 39 l-45 39 48 51 c26 27 47 54 47 59 0 5 -8 16 -19
26 -17 16 -23 11 -135 -107z"/>
<path d="M572 3183 c-25 -21 -122 -143 -122 -152 1 -6 256 -214 268 -218 4 -1
15 8 24 21 17 24 17 24 -37 66 -30 23 -55 45 -55 49 0 3 9 17 19 30 l19 25 82
-18 c79 -17 82 -17 95 1 19 25 6 35 -68 53 -43 11 -61 20 -59 30 7 31 -10 61
-55 95 -51 39 -81 44 -111 18z m76 -69 c30 -21 28 -33 -14 -82 l-36 -42 -29
21 c-16 11 -29 25 -29 31 0 16 60 88 74 88 6 0 22 -7 34 -16z"/>
<path d="M3479 3066 c-43 -23 -174 -109 -196 -129 -31 -28 -29 -64 8 -123 43
-68 69 -94 94 -94 21 0 185 100 233 140 32 28 27 60 -19 134 -45 72 -80 93
-120 72z m61 -98 c16 -22 30 -47 30 -54 0 -15 -157 -124 -177 -124 -15 0 -63
72 -63 94 0 11 161 126 176 126 2 0 17 -19 34 -42z"/>
<path d="M360 2895 c-7 -14 -11 -28 -8 -31 4 -3 71 -43 150 -89 142 -83 143
-84 161 -63 9 11 17 23 17 27 0 3 -44 31 -98 61 -53 30 -122 69 -153 87 l-56
32 -13 -24z"/>
<path d="M3576 2695 c-87 -35 -160 -66 -163 -68 -2 -2 1 -16 6 -31 l10 -26 53
21 c29 12 60 23 68 26 11 3 26 -17 50 -69 33 -69 37 -73 70 -76 48 -4 122 35
134 70 8 21 2 46 -28 122 -21 53 -39 96 -40 96 0 -1 -72 -30 -160 -65z m144
-61 c28 -64 26 -80 -11 -93 -18 -6 -33 -11 -34 -11 -5 0 -45 99 -45 109 0 8
41 33 68 40 1 1 12 -20 22 -45z"/>
<path d="M291 2726 c-16 -9 -36 -43 -63 -106 -21 -51 -36 -95 -33 -98 14 -14
320 -131 325 -125 15 18 70 170 70 194 0 14 -8 33 -17 41 -15 13 -242 109
-255 108 -1 -1 -14 -7 -27 -14z m136 -93 c104 -41 107 -46 73 -121 l-19 -42
-48 19 c-26 10 -74 30 -105 44 -55 25 -57 27 -48 52 16 42 40 85 48 85 3 0 48
-17 99 -37z"/>
<path d="M302 2130 c-5 -14 -18 -49 -28 -77 l-19 -53 -77 0 c-43 0 -78 -4 -78
-8 0 -5 27 -30 59 -55 l60 -46 -20 -71 c-12 -40 -19 -74 -16 -76 2 -2 31 14
65 37 l62 41 66 -41 c37 -23 68 -41 69 -39 2 2 -6 30 -16 63 -10 33 -19 67
-19 76 0 9 28 38 63 65 l62 49 -84 5 -83 5 -24 65 c-13 36 -25 70 -28 75 -2 6
-8 -1 -14 -15z"/>
<path d="M3655 2128 c-4 -13 -16 -47 -27 -75 l-19 -53 -82 -1 -82 0 39 -32
c22 -18 51 -42 65 -53 l26 -22 -22 -73 c-12 -41 -20 -75 -18 -77 2 -2 31 15
64 37 33 23 64 41 68 41 4 0 35 -18 68 -40 32 -21 61 -37 63 -35 3 3 -5 36
-34 135 -2 10 19 33 62 65 l66 50 -83 5 -84 5 -25 67 c-31 81 -36 87 -45 56z"/>
<path d="M468 1267 c-118 -88 -120 -90 -112 -110 9 -24 24 -21 72 14 23 17 42
29 42 26 0 -2 -16 -24 -35 -48 -34 -43 -44 -69 -26 -69 5 0 28 7 51 15 64 23
69 18 17 -17 -26 -18 -47 -35 -47 -38 1 -3 7 -13 15 -23 13 -18 20 -14 129 64
64 45 116 85 116 88 0 3 -7 14 -14 24 -14 18 -17 18 -81 -2 -37 -12 -71 -21
-77 -21 -5 0 12 27 37 60 37 48 46 66 41 85 -4 14 -12 25 -19 24 -6 0 -56 -33
-109 -72z"/>
<path d="M3399 1301 c-13 -10 -37 -44 -53 -74 -28 -51 -29 -56 -14 -79 15 -22
142 -115 179 -130 24 -10 55 16 89 75 34 58 36 75 16 102 -12 17 -17 18 -40 7
-23 -10 -25 -14 -14 -32 11 -16 10 -25 -4 -47 -29 -49 -40 -49 -106 -4 -73 49
-76 54 -61 83 23 45 40 58 60 47 17 -8 19 -6 19 20 0 20 -7 34 -19 41 -25 13
-24 13 -52 -9z"/>
<path d="M602 1052 c-50 -48 -92 -94 -92 -102 0 -38 86 -140 119 -140 22 0
201 156 201 176 0 6 -7 17 -15 24 -12 10 -28 -1 -96 -64 -45 -42 -86 -76 -89
-76 -4 0 -20 16 -35 36 l-28 37 82 81 c63 61 81 84 74 95 -5 8 -14 16 -19 18
-5 1 -51 -37 -102 -85z"/>
<path d="M3266 1119 c-14 -21 -11 -25 91 -113 57 -50 108 -92 112 -94 3 -1 12
7 19 18 13 22 15 20 -135 149 -71 61 -72 61 -87 40z"/>
<path d="M3156 984 c-26 -31 -46 -62 -46 -70 0 -24 71 -94 94 -94 12 0 39 18
61 40 45 46 58 49 79 18 14 -20 13 -24 -12 -54 -15 -18 -32 -33 -38 -33 -7 -1
-15 -8 -18 -17 -24 -63 27 -60 88 6 59 63 61 92 8 143 -51 50 -77 49 -123 -5
-25 -29 -41 -39 -53 -35 -35 14 -30 39 17 83 55 51 60 74 18 74 -24 0 -39 -11
-75 -56z"/>
<path d="M808 923 c-59 -64 -59 -95 3 -143 44 -36 48 -49 19 -75 -18 -16 -21
-17 -45 -1 -13 9 -32 27 -41 41 -22 34 -54 33 -54 0 0 -17 15 -40 48 -70 62
-59 92 -58 139 3 18 24 33 50 33 58 0 8 -21 37 -46 64 -39 42 -44 51 -34 69 6
12 13 21 17 21 14 0 73 -52 73 -64 0 -16 41 -29 53 -17 5 5 6 18 3 29 -9 28
-102 112 -124 112 -10 0 -30 -12 -44 -27z"/>
<path d="M3055 887 c-17 -13 -14 -19 45 -98 34 -46 67 -89 72 -96 7 -9 0 -21
-23 -43 -19 -16 -38 -30 -44 -30 -6 0 -40 41 -75 90 -35 50 -67 90 -70 90 -3
0 -14 -6 -25 -13 -17 -13 -14 -19 41 -93 79 -108 104 -134 129 -134 30 0 125
86 125 114 0 21 -137 225 -151 226 -3 0 -13 -6 -24 -13z"/>
<path d="M947 692 c-58 -87 -76 -121 -69 -132 5 -8 14 -15 20 -15 6 0 48 53
92 118 77 111 81 119 63 132 -10 8 -20 14 -23 14 -3 0 -40 -52 -83 -117z"/>
<path d="M2877 746 c-16 -13 -16 -18 -2 -85 8 -40 15 -77 15 -84 0 -6 -26 15
-59 47 -54 53 -60 57 -80 44 -11 -7 -20 -16 -19 -19 19 -45 136 -249 143 -249
6 0 17 5 25 10 13 8 11 17 -12 60 -16 27 -26 50 -24 50 2 0 23 -18 47 -40 24
-22 47 -36 51 -32 3 4 1 33 -7 65 -7 31 -11 57 -9 57 2 0 13 -18 24 -39 11
-22 24 -42 29 -45 12 -8 41 4 41 17 0 13 -133 257 -140 257 -3 0 -13 -7 -23
-14z"/>
<path d="M1077 726 c-8 -8 -36 -56 -62 -107 -40 -78 -46 -95 -36 -115 14 -30
98 -84 133 -84 34 0 54 31 38 60 -11 21 -30 27 -30 10 0 -18 -34 -10 -65 14
l-30 24 40 76 c22 42 45 76 52 76 6 0 25 -8 43 -17 23 -14 30 -24 27 -40 -6
-31 31 -43 50 -17 27 37 10 66 -68 112 -42 26 -72 28 -92 8z"/>
<path d="M2427 535 c-43 -12 -80 -25 -82 -27 -3 -3 64 -280 69 -286 2 -1 46
10 99 25 88 24 96 29 91 48 -10 31 -10 31 -81 12 -36 -9 -69 -14 -74 -11 -5 3
-9 17 -9 33 0 24 6 28 46 39 40 11 45 15 38 35 -9 30 -7 30 -53 16 -46 -14
-57 -8 -63 30 -3 22 3 26 67 44 39 10 71 20 72 21 1 1 0 12 -4 24 -7 27 -18
27 -116 -3z"/>
<path d="M1315 527 c-18 -24 -23 -26 -52 -18 l-33 10 16 -31 c14 -27 14 -31 0
-47 -23 -26 -20 -33 13 -26 24 5 32 1 49 -22 l21 -28 1 33 c0 27 5 35 30 46
l31 12 -25 12 c-19 8 -25 20 -28 49 l-3 38 -20 -28z"/>
<path d="M1463 538 c-13 -17 -33 -76 -33 -99 0 -27 27 -48 76 -60 52 -14 58
-20 49 -60 -6 -28 -9 -30 -38 -24 -18 4 -42 14 -55 22 -25 15 -62 9 -62 -11 0
-36 131 -87 169 -66 35 18 55 136 27 159 -8 6 -33 17 -57 24 -39 11 -44 16
-44 42 0 26 4 30 24 27 13 -1 39 -9 57 -18 36 -17 64 -13 64 9 0 43 -150 89
-177 55z"/>
<path d="M2650 508 c0 -32 -4 -39 -25 -44 -32 -8 -32 -20 -1 -28 17 -4 27 -16
31 -38 l7 -31 18 23 c14 19 23 22 49 17 l32 -7 -17 29 c-16 28 -16 31 0 55
l17 27 -28 -7 c-15 -4 -31 -7 -34 -8 -4 0 -16 10 -27 24 l-21 25 -1 -37z"/>
<path d="M1668 477 c-5 -28 6 -37 49 -37 l26 0 -7 -102 c-4 -57 -10 -113 -13
-126 -5 -21 -2 -23 23 -20 29 3 29 4 36 88 4 47 10 100 13 119 6 32 8 33 46
28 37 -5 39 -4 39 23 0 26 -3 28 -57 34 -32 4 -79 10 -104 13 -44 5 -47 4 -51
-20z"/>
<path d="M2130 463 c1 -40 28 -274 32 -279 5 -5 190 15 196 21 2 2 1 13 -3 26
-7 20 -11 21 -80 15 l-72 -7 -7 73 c-14 159 -16 168 -42 168 -16 0 -24 -6 -24
-17z"/>
<path d="M1910 453 c0 -10 16 -43 35 -73 32 -50 35 -60 35 -132 0 -77 0 -78
25 -78 25 0 25 1 25 79 0 74 3 85 35 138 42 69 43 83 10 83 -14 0 -25 -5 -25
-11 0 -5 -11 -26 -24 -45 l-24 -35 -28 45 c-29 46 -64 62 -64 29z"/>
</g>
</svg>
